<?xml version="1.0" standalone="no"?>
<!DOCTYPE svg PUBLIC "-//W3C//DTD SVG 20010904//EN"
 "http://www.w3.org/TR/2001/REC-SVG-20010904/DTD/svg10.dtd">
<svg version="1.0" xmlns="http://www.w3.org/2000/svg"
 width="2355.000000pt" height="2355.000000pt" viewBox="0 0 2355.000000 2355.000000"
 preserveAspectRatio="xMidYMid meet">
<metadata>
Created by potrace 1.13, written by Peter Selinger 2001-2015
</metadata>
<g transform="translate(0.000000,2355.000000) scale(0.100000,-0.100000)"
fill="#000000" stroke="none">
<path d="M11340 23539 c-466 -24 -688 -43 -1065 -90 -2861 -360 -5526 -1802
-7429 -4019 -1617 -1883 -2598 -4220 -2801 -6670 -25 -306 -45 -741 -45 -985
0 -246 20 -684 45 -985 216 -2570 1270 -4988 3016 -6915 502 -554 1080 -1079
1694 -1538 1758 -1314 3846 -2108 6030 -2291 299 -26 742 -46 990 -46 249 0
692 20 990 46 2336 197 4536 1080 6375 2558 555 445 1096 970 1565 1516 1618
1887 2594 4212 2800 6670 45 546 55 1021 30 1496 -41 771 -119 1364 -270 2045
-650 2920 -2399 5484 -4905 7191 -1445 985 -3132 1643 -4860 1897 -708 104
-1555 151 -2160 120z m1250 -563 c879 -72 1627 -210 2410 -446 1581 -477 2995
-1272 4260 -2395 186 -165 687 -665 861 -860 1581 -1766 2553 -3927 2813
-6255 53 -474 60 -615 61 -1230 0 -601 -5 -710 -50 -1166 -191 -1900 -889
-3754 -2008 -5329 -558 -785 -1229 -1512 -1967 -2130 -1496 -1253 -3291 -2097
-5190 -2439 -489 -89 -945 -141 -1452 -167 -262 -13 -1092 -7 -1318 10 -990
76 -1880 252 -2765 547 -341 113 -759 275 -1020 394 -1193 547 -2142 1174
-3060 2021 -1298 1199 -2313 2708 -2917 4338 -376 1015 -589 2002 -679 3146
-17 219 -23 1057 -10 1310 84 1600 476 3083 1187 4490 444 881 974 1658 1652
2425 179 202 695 720 892 895 666 590 1320 1055 2070 1472 1424 792 3081 1277
4685 1373 99 6 203 12 230 14 144 10 1134 -3 1315 -18z"/>
<path d="M11532 22450 c-437 -17 -1190 -80 -1387 -116 l-30 -5 3 -82 c1 -45
14 -370 27 -722 13 -352 21 -642 17 -646 -4 -3 -45 -11 -92 -18 -399 -58
-1003 -221 -1420 -385 -11 -4 -112 154 -405 635 -214 352 -393 643 -398 646
-24 15 -713 -309 -1068 -502 -400 -219 -848 -498 -1254 -783 -145 -101 -555
-405 -663 -491 l-52 -42 37 -57 c20 -31 116 -183 213 -337 230 -364 424 -669
488 -771 29 -44 52 -85 52 -91 0 -6 -42 -46 -92 -90 -292 -251 -656 -631 -927
-965 -34 -43 -67 -78 -72 -78 -6 0 -254 136 -552 302 -298 166 -592 329 -654
363 -102 57 -113 61 -126 46 -8 -9 -50 -65 -94 -126 -608 -840 -1131 -1797
-1499 -2745 -35 -90 -64 -169 -64 -175 0 -5 60 -44 133 -86 93 -54 1164 -662
1184 -673 1 -1 -20 -72 -47 -158 -115 -372 -205 -805 -238 -1148 l-7 -75 -752
-3 -752 -2 -5 -33 c-7 -39 -31 -386 -47 -672 -16 -274 -16 -1096 -1 -1345 30
-470 78 -876 153 -1278 l21 -112 782 0 782 0 33 -137 c85 -354 228 -815 340
-1097 29 -71 48 -132 44 -137 -6 -6 -669 -362 -1203 -647 -47 -25 -87 -47 -88
-48 -6 -4 139 -300 254 -524 387 -748 960 -1603 1557 -2323 49 -59 93 -107 97
-107 5 0 157 89 337 199 180 109 472 285 647 391 l319 194 55 -65 c90 -104
369 -378 486 -478 80 -68 323 -259 364 -287 2 -1 -150 -275 -337 -608 -188
-334 -348 -620 -356 -636 l-15 -29 92 -69 c716 -530 1543 -1001 2413 -1374
240 -103 529 -218 547 -218 7 0 170 304 362 676 243 471 353 674 362 670 38
-15 362 -108 449 -130 207 -51 660 -136 727 -136 26 0 26 -1 32 -82 3 -46 13
-373 22 -728 8 -355 17 -655 20 -666 4 -25 24 -29 289 -68 457 -67 849 -91
1380 -83 603 9 1095 61 1721 183 l91 17 6 141 c4 78 7 249 7 382 0 132 3 409
7 616 l6 375 116 22 c280 53 629 152 871 245 86 33 118 41 126 33 7 -7 132
-205 279 -442 480 -771 527 -845 541 -845 30 0 496 203 759 331 698 339 1393
788 2056 1327 l167 135 -400 600 c-220 329 -401 604 -403 610 -2 7 52 59 121
117 249 208 520 485 718 733 l77 98 37 -23 c34 -21 217 -140 737 -481 505
-331 516 -338 530 -327 8 6 67 82 133 168 402 532 784 1141 1144 1827 217 414
500 1028 481 1045 -7 7 -388 211 -1098 590 -126 67 -231 123 -232 124 -1 1 18
56 43 122 105 276 209 618 270 888 18 82 35 150 37 153 3 2 341 -5 753 -15
412 -10 751 -17 752 -16 7 5 62 380 86 589 60 504 80 862 80 1430 -1 532 -21
927 -72 1375 l-17 145 -285 0 c-157 0 -496 -2 -754 -4 l-470 -5 -57 256 c-66
294 -151 624 -214 830 -34 110 -41 146 -32 154 7 6 302 172 657 369 355 197
647 359 649 361 6 5 -21 74 -106 274 -381 894 -871 1784 -1389 2520 -196 280
-218 309 -228 310 -7 0 -501 -301 -1174 -716 -57 -35 -107 -64 -110 -64 -4 0
-27 26 -52 58 -55 70 -188 229 -248 297 -106 119 -399 407 -535 527 -140 124
-147 132 -134 152 15 22 633 1063 701 1180 l40 69 -44 40 c-436 391 -992 770
-1645 1120 -150 80 -649 328 -835 414 -454 211 -489 227 -494 222 -1 -2 -170
-291 -375 -641 -205 -351 -378 -638 -383 -638 -5 0 -69 22 -141 49 -317 118
-752 240 -1039 292 l-128 23 0 762 0 761 -47 7 c-334 49 -712 88 -1023 105
-256 15 -812 21 -1058 11z m853 -850 c88 -6 170 -13 183 -15 l22 -5 0 -733 0
-732 188 -23 c934 -115 1847 -377 2649 -762 l142 -68 137 242 c75 132 211 372
302 531 90 160 187 329 214 378 28 48 57 87 65 87 30 0 281 -105 432 -181 224
-112 553 -319 679 -426 l33 -28 -179 -325 c-98 -179 -249 -455 -336 -615 -87
-159 -167 -304 -177 -320 l-18 -31 92 -69 c753 -571 1432 -1279 2066 -2154
l17 -25 165 88 c90 49 187 101 214 116 28 15 178 96 335 180 157 84 332 178
390 210 58 32 120 65 138 74 l32 17 77 -118 c181 -279 377 -616 458 -788 68
-145 95 -207 95 -218 -1 -7 -65 -49 -143 -93 -78 -45 -254 -147 -392 -226
-137 -80 -353 -204 -480 -277 -126 -73 -234 -136 -238 -141 -5 -4 30 -104 77
-221 219 -548 396 -1181 506 -1804 37 -213 90 -595 106 -761 l6 -71 262 -6
c143 -4 473 -10 732 -13 l471 -7 7 -60 c9 -91 7 -695 -4 -842 -13 -187 -42
-452 -50 -464 -4 -8 -231 -15 -736 -24 l-729 -12 -13 -95 c-99 -730 -360
-1670 -702 -2525 -17 -44 -28 -81 -23 -82 4 -2 170 -102 368 -222 198 -120
470 -284 605 -366 135 -81 247 -149 249 -151 16 -14 -218 -458 -363 -689 -100
-161 -313 -463 -337 -478 -12 -7 -30 -1 -75 25 -66 39 -677 400 -971 574 -106
63 -196 114 -200 114 -5 0 -52 -53 -104 -117 -511 -628 -1212 -1312 -1827
-1781 l-131 -99 350 -636 c192 -350 352 -642 354 -650 10 -24 -357 -282 -595
-418 -236 -136 -612 -311 -629 -293 -5 5 -97 169 -206 364 -109 195 -265 477
-348 626 l-151 271 -91 -40 c-647 -282 -1454 -517 -2387 -693 l-256 -49 -6
-100 c-3 -55 -13 -338 -21 -630 -8 -291 -18 -571 -21 -621 l-6 -92 -106 -11
c-233 -25 -400 -32 -692 -32 -326 0 -507 11 -519 29 -4 7 -15 265 -25 574 -10
310 -21 635 -25 723 l-6 160 -230 17 c-927 70 -1692 245 -2385 545 -107 47
-201 85 -209 86 -10 1 -136 -221 -364 -638 -192 -352 -350 -641 -352 -643 -6
-7 -322 122 -490 200 -93 43 -233 113 -310 155 -154 84 -411 239 -420 253 -3
5 159 304 360 666 201 362 364 658 362 659 -1 1 -68 43 -148 93 -744 463
-1411 1063 -1898 1705 -41 53 -79 97 -85 97 -6 0 -21 -7 -33 -15 -12 -8 -118
-73 -235 -144 -189 -114 -756 -457 -942 -570 -38 -23 -73 -40 -77 -39 -26 10
-282 343 -394 513 -162 248 -349 595 -330 614 6 5 226 134 490 286 638 368
759 438 764 442 2 1 -13 33 -33 70 -60 109 -249 498 -301 618 -269 623 -468
1314 -590 2055 -15 85 -28 157 -31 159 -2 3 -347 0 -766 -7 -419 -6 -763 -10
-764 -9 -6 6 -76 1339 -71 1344 4 3 337 0 742 -7 405 -7 737 -11 739 -9 2 2
11 98 20 213 47 596 125 1084 261 1641 90 372 166 619 307 1010 50 137 87 251
82 252 -5 2 -281 163 -614 357 -551 322 -605 356 -603 379 3 48 106 305 197
492 117 241 382 685 409 685 4 0 289 -173 633 -385 345 -212 629 -385 633
-385 3 0 33 46 66 102 187 318 519 768 758 1028 411 446 829 812 1336 1170 85
60 90 66 77 85 -7 11 -183 296 -391 634 l-378 614 29 24 c191 157 609 411 901
549 158 75 295 135 298 132 1 -2 177 -280 390 -618 214 -338 389 -616 390
-617 0 -1 68 26 151 61 822 350 1794 605 2769 727 55 7 103 17 107 23 4 6 8
336 8 733 0 679 1 722 18 727 15 4 258 20 457 30 117 6 620 -3 790 -14z"/>
<path d="M10563 19508 c-40 -66 -53 -101 -53 -139 0 -25 9 -35 62 -70 104 -66
128 -66 169 6 36 65 57 141 43 162 -16 25 -135 93 -164 93 -20 0 -32 -11 -57
-52z"/>
<path d="M11952 19503 c-30 -43 -58 -104 -66 -142 -5 -29 -2 -37 29 -65 41
-38 113 -76 144 -76 44 0 123 168 100 212 -16 29 -128 98 -160 98 -19 0 -34
-9 -47 -27z"/>
<path d="M10281 19471 c-35 -49 -61 -114 -61 -154 0 -35 4 -40 62 -78 71 -45
104 -56 127 -42 23 14 59 80 77 141 16 53 16 54 -8 79 -33 36 -118 83 -150 83
-18 0 -33 -9 -47 -29z"/>
<path d="M11183 19061 c-77 -8 -114 -27 -200 -106 -35 -31 -46 -49 -50 -80 -7
-54 24 -95 71 -95 61 0 92 -18 120 -70 15 -27 23 -51 19 -53 -5 -2 -78 -21
-164 -42 -145 -36 -159 -38 -202 -26 -65 19 -119 69 -179 168 -64 104 -123
158 -195 179 -65 19 -109 13 -189 -25 -175 -84 -381 -259 -438 -373 -60 -122
-41 -247 50 -327 49 -43 93 -57 206 -66 43 -4 80 -10 82 -14 9 -14 -44 -80
-101 -127 -106 -86 -242 -135 -434 -155 -112 -11 -237 1 -276 26 -31 20 -60
80 -79 162 -13 53 -15 100 -11 217 5 119 3 157 -9 185 -25 60 -58 68 -78 19
-42 -102 -56 -526 -22 -643 66 -227 249 -333 520 -304 288 32 547 205 696 466
86 149 112 281 70 350 -30 51 -106 82 -257 109 -133 23 -173 36 -173 55 0 22
56 63 148 107 87 42 104 47 169 47 68 0 74 -2 105 -32 18 -18 56 -74 83 -125
90 -166 172 -228 312 -236 100 -5 192 21 371 108 l119 58 44 -35 c60 -48 131
-82 182 -89 54 -8 144 15 242 60 l75 35 57 -35 c150 -90 278 -98 422 -25 l41
21 47 -34 c98 -69 126 -76 558 -135 437 -60 494 -62 573 -22 86 44 161 158
198 301 43 170 -32 326 -196 410 -195 99 -381 74 -615 -83 -67 -45 -197 -151
-234 -191 -28 -29 -31 -30 -84 -15 -28 7 -47 23 -78 67 -75 103 -97 106 -179
28 -69 -66 -119 -84 -189 -66 -61 15 -100 40 -139 90 -46 56 -86 56 -141 0
-50 -52 -79 -62 -183 -62 -92 0 -138 16 -138 48 0 23 36 87 64 113 86 81 34
180 -128 240 -67 25 -174 33 -283 22z m2177 -444 c42 -18 104 -76 126 -119 15
-30 15 -32 -2 -45 -10 -7 -27 -13 -39 -13 -32 0 -554 59 -600 68 l-40 8 90 37
c78 33 183 65 265 81 44 8 164 -2 200 -17z"/>
<path d="M15314 18864 c-73 -38 -149 -99 -172 -136 -11 -18 -39 -89 -62 -158
-30 -92 -65 -169 -135 -295 -169 -305 -241 -492 -252 -655 -6 -101 17 -176 69
-227 67 -65 281 -152 393 -160 66 -5 74 -3 136 31 37 19 69 32 73 29 3 -4 6
-27 6 -52 1 -52 35 -143 77 -204 50 -72 216 -178 343 -217 50 -16 55 -21 69
-61 7 -24 23 -57 33 -72 26 -37 111 -84 176 -98 38 -7 52 -15 52 -27 0 -102
86 -183 248 -236 31 -11 52 -23 52 -32 0 -37 55 -116 125 -182 199 -186 323
-248 417 -209 37 16 160 151 227 250 75 111 129 279 132 405 2 69 -16 102 -56
102 -29 0 -133 -54 -181 -93 -58 -49 -65 -75 -52 -210 21 -204 -7 -215 -183
-76 -161 128 -169 137 -169 204 0 42 -5 60 -20 75 -22 22 -24 22 -121 24 -52
1 -72 6 -89 21 -37 33 -60 94 -60 161 0 89 -30 108 -130 86 -82 -19 -150 34
-150 117 0 26 -7 56 -16 69 -13 19 -24 22 -83 22 -58 0 -78 5 -152 41 -96 46
-158 93 -189 144 -19 30 -22 57 -30 232 -9 193 -20 276 -55 416 -10 37 -15 70
-12 73 3 4 178 1 389 -6 347 -11 389 -11 447 4 82 21 120 39 165 80 46 43 47
71 4 85 -18 6 -145 16 -283 22 -137 6 -412 21 -610 33 l-360 23 -52 -24 c-52
-24 -93 -67 -93 -97 0 -9 23 -65 51 -124 95 -199 159 -380 159 -450 0 -83 -58
-84 -218 -1 -201 104 -255 159 -255 258 0 52 107 271 357 729 85 156 157 298
160 315 7 40 -16 77 -48 77 -13 0 -45 -12 -72 -26z"/>
<path d="M14158 18413 c-75 -76 -138 -160 -138 -184 0 -10 -29 -58 -65 -106
-77 -104 -100 -167 -93 -258 6 -72 23 -108 75 -158 78 -77 223 -103 313 -58
106 54 204 210 255 405 42 163 29 234 -55 310 -47 42 -149 94 -202 102 -30 5
-38 1 -90 -53z m41 -297 c104 -54 126 -186 31 -186 -78 0 -139 105 -114 197 6
23 19 22 83 -11z"/>
<path d="M7645 18416 c-14 -10 -19 -30 -23 -94 -6 -104 7 -138 57 -152 50 -14
164 -13 179 2 16 16 16 175 -1 208 -21 42 -170 67 -212 36z"/>
<path d="M15800 18341 c-25 -22 -42 -42 -39 -46 4 -3 129 -11 278 -18 l272
-11 46 46 45 46 -243 6 c-134 4 -260 9 -279 11 -30 4 -42 -1 -80 -34z"/>
<path d="M7924 18288 c-5 -7 -10 -52 -12 -100 -6 -118 3 -132 97 -148 80 -13
127 -7 141 20 11 21 12 151 1 190 -4 17 -18 29 -41 37 -47 16 -177 17 -186 1z"/>
<path d="M8580 18016 l0 -134 29 -12 c16 -6 40 -23 53 -37 22 -24 22 -25 4
-38 -10 -8 -43 -19 -72 -25 -69 -15 -144 0 -208 40 -26 17 -48 30 -49 30 -2 0
-1 -27 1 -60 6 -82 -4 -125 -38 -164 -35 -39 -110 -74 -166 -77 -21 -1 -72 4
-112 10 -40 7 -76 10 -80 7 -3 -4 -5 -29 -3 -57 5 -92 -50 -165 -194 -260 -33
-22 -89 -49 -125 -60 -58 -18 -80 -20 -194 -14 -123 7 -129 6 -121 -12 4 -10
18 -76 31 -148 13 -71 24 -130 24 -131 0 -1 37 -4 83 -8 122 -10 201 -25 235
-46 101 -61 94 -239 -16 -473 -55 -117 -124 -227 -187 -302 -91 -108 -116
-165 -78 -179 24 -10 118 12 203 47 154 62 251 144 303 255 31 66 32 70 31
207 -1 157 -24 333 -59 442 l-23 72 89 56 c95 60 161 127 181 181 10 28 17 34
40 34 43 0 146 38 193 70 66 46 130 123 145 175 10 36 16 45 29 39 9 -4 41 -9
71 -11 112 -9 242 71 291 179 20 44 24 69 23 148 0 125 -26 194 -99 265 -49
48 -184 125 -219 125 -14 0 -16 -19 -16 -134z"/>
<path d="M7698 18123 c-20 -5 -29 -43 -30 -126 0 -78 7 -104 34 -118 28 -15
179 -23 197 -11 20 14 26 146 9 197 -12 38 -16 41 -68 52 -57 11 -112 14 -142
6z"/>
<path d="M16789 17675 c-58 -16 -106 -44 -112 -65 -7 -26 11 -138 28 -169 19
-38 30 -41 95 -24 82 21 139 51 146 77 7 31 -14 145 -32 174 -17 25 -52 28
-125 7z"/>
<path d="M11875 17650 c-111 -17 -244 -89 -366 -199 -50 -44 -219 -239 -227
-261 -2 -5 26 -23 63 -39 197 -89 423 -275 549 -449 l38 -53 36 71 c41 83 138
192 226 254 75 54 215 125 319 161 42 15 77 30 77 32 0 9 -83 126 -141 198
-118 146 -271 252 -406 280 -74 16 -93 16 -168 5z"/>
<path d="M16520 17546 c-65 -18 -108 -43 -115 -66 -11 -35 15 -159 39 -186
l21 -24 65 16 c36 9 82 25 104 36 l39 20 -5 71 c-3 40 -12 89 -21 110 -14 32
-20 37 -49 36 -18 0 -53 -6 -78 -13z"/>
<path d="M16764 17366 c-28 -7 -66 -22 -85 -33 -33 -19 -34 -21 -32 -83 2 -68
26 -145 47 -153 18 -7 90 9 154 34 38 16 54 28 58 46 10 37 -4 133 -24 168
-21 35 -44 39 -118 21z"/>
<path d="M17445 17031 c-71 -20 -94 -32 -119 -60 -17 -19 -18 -26 -7 -82 15
-72 38 -126 59 -134 20 -7 132 30 174 58 18 13 34 33 36 45 4 28 -25 140 -44
169 -17 27 -20 27 -99 4z"/>
<path d="M6591 17001 c-30 -3 -56 -10 -57 -16 -2 -5 25 -64 59 -130 41 -80 70
-124 87 -133 18 -9 52 -11 122 -7 203 13 216 -17 88 -197 -101 -143 -196 -238
-237 -238 -5 0 -27 28 -50 63 -59 89 -118 153 -170 183 -38 23 -52 26 -102 21
-148 -13 -229 -119 -203 -266 21 -117 134 -340 207 -409 42 -39 54 -11 -113
-272 -369 -576 -528 -768 -709 -856 -49 -24 -70 -29 -133 -28 -41 0 -102 4
-136 9 -78 10 -87 -5 -48 -81 122 -242 378 -287 638 -113 115 77 182 158 405
493 271 407 314 480 376 644 l52 137 74 60 c126 103 244 226 302 315 65 100
127 223 153 300 24 73 24 184 0 229 -24 45 -159 179 -221 219 -91 60 -246 89
-384 73z m-105 -770 c23 -10 45 -24 49 -31 12 -20 -23 -97 -48 -104 -60 -16
-133 0 -139 31 -7 32 10 87 33 106 27 22 54 21 105 -2z"/>
<path d="M12871 16970 c-197 -27 -410 -139 -599 -315 -73 -68 -195 -208 -275
-317 -32 -43 -60 -78 -65 -77 -4 0 -41 41 -82 91 -41 49 -132 144 -201 211
-317 307 -604 434 -875 388 -64 -11 -224 -76 -224 -91 0 -4 46 -34 103 -67
601 -355 986 -824 1189 -1448 36 -110 98 -348 98 -375 0 -44 17 -16 29 48 22
110 99 367 148 491 174 443 428 772 853 1103 70 54 311 219 386 264 17 10 15
13 -21 29 -124 53 -336 82 -464 65z"/>
<path d="M9856 16778 c5 -7 40 -62 79 -123 569 -880 923 -1698 1054 -2435 59
-332 55 -73 58 -3387 l3 -3033 345 0 345 0 0 3188 c0 1996 -4 3241 -10 3332
-76 1117 -791 2105 -1764 2436 -111 38 -121 40 -110 22z"/>
<path d="M13940 16751 c-221 -79 -388 -165 -574 -296 -592 -414 -1008 -1087
-1142 -1847 -26 -150 -27 -166 -34 -723 -5 -313 -9 -1811 -9 -3327 l-1 -2758
345 0 345 0 3 3023 c3 3292 -1 3043 57 3382 53 309 183 748 325 1090 163 396
496 1010 765 1415 52 78 53 80 38 79 -7 0 -60 -17 -118 -38z"/>
<path d="M17820 16398 c-60 -30 -164 -136 -355 -363 -292 -345 -395 -481 -395
-521 0 -29 30 -38 100 -32 102 10 118 26 587 582 257 305 277 348 162 354 -40
2 -66 -3 -99 -20z"/>
<path d="M5517 15765 c-55 -15 -97 -40 -97 -58 0 -34 46 -161 67 -183 21 -23
28 -24 71 -18 67 10 133 36 147 59 11 17 10 30 -6 81 -10 33 -29 76 -42 95
-26 40 -62 46 -140 24z"/>
<path d="M17935 15725 c-66 -30 -121 -61 -123 -69 -2 -8 10 -55 27 -104 58
-168 92 -386 71 -461 -13 -49 -28 -58 -67 -38 -30 16 -165 150 -289 290 -43
48 -86 87 -95 87 -34 0 -104 -32 -147 -67 -72 -59 -90 -129 -52 -203 71 -139
320 -341 450 -365 26 -5 56 1 115 23 220 80 362 241 373 420 6 103 -15 378
-33 440 -20 66 -49 102 -83 101 -15 0 -81 -25 -147 -54z"/>
<path d="M6995 15666 c-27 -7 -65 -20 -83 -30 -31 -16 -33 -21 -28 -51 13 -67
36 -133 58 -160 20 -26 25 -27 79 -21 68 7 136 32 148 55 13 23 -33 161 -63
194 -28 30 -38 31 -111 13z"/>
<path d="M6807 15411 c-96 -25 -103 -33 -83 -110 20 -79 51 -138 75 -146 42
-13 185 26 201 55 11 20 -9 100 -42 165 -32 63 -41 65 -151 36z"/>
<path d="M8381 15309 c-108 -14 -262 -58 -348 -100 -46 -22 -83 -44 -83 -49 0
-6 26 -45 58 -89 111 -149 198 -347 222 -507 10 -60 12 -445 9 -1633 l-4
-1553 105 -37 c340 -121 634 -282 903 -493 l87 -69 -2 1008 -3 1008 28 48 c41
69 94 101 176 105 54 2 73 -1 106 -20 53 -31 99 -101 113 -173 9 -42 12 -368
12 -1189 l0 -1132 61 -59 c257 -253 534 -616 700 -920 l39 -70 0 2100 c0 2220
1 2174 -45 2368 -106 454 -379 841 -785 1111 -281 187 -615 309 -945 346 -105
11 -312 11 -404 -1z"/>
<path d="M15127 15310 c-461 -58 -921 -277 -1230 -586 -247 -246 -409 -532
-488 -863 -50 -206 -49 -154 -49 -2386 l0 -2090 55 98 c169 300 388 588 657
862 l87 90 3 1160 c3 1083 4 1163 21 1204 40 100 106 151 197 151 88 0 152
-38 193 -115 l22 -40 0 -1002 c0 -552 2 -1003 5 -1003 3 0 45 32 94 70 246
193 539 353 861 471 l130 48 0 1598 0 1598 22 77 c44 156 121 308 222 441 49
65 49 66 28 80 -74 48 -208 97 -337 123 -88 18 -392 27 -493 14z"/>
<path d="M7000 12766 l0 -1337 123 8 c157 10 412 10 551 0 l109 -8 -7 1095
c-6 1046 -7 1098 -26 1173 -30 117 -71 193 -140 256 -111 103 -215 137 -447
144 l-163 5 0 -1336z"/>
<path d="M16625 14093 c-195 -27 -331 -117 -405 -267 -71 -143 -69 -111 -72
-1320 l-3 -1078 59 6 c143 15 352 18 500 7 87 -7 160 -10 163 -7 2 2 13 500
23 1107 10 607 21 1206 24 1332 l5 227 -132 -1 c-73 -1 -145 -4 -162 -6z"/>
<path d="M7095 11054 c-16 -2 -73 -9 -125 -15 -582 -65 -1160 -392 -1600 -904
-87 -101 -192 -236 -188 -241 2 -1 100 -7 218 -14 354 -18 614 -53 887 -120
914 -223 1651 -772 2238 -1665 50 -77 118 -184 150 -237 31 -54 60 -98 64 -98
3 -1 153 14 334 32 379 37 339 15 308 175 -51 258 -176 518 -381 790 -182 243
-395 464 -805 835 -448 404 -492 464 -415 551 121 139 441 17 860 -326 213
-175 583 -576 777 -842 259 -357 469 -760 560 -1076 l28 -99 352 0 353 0 -6
33 c-118 661 -410 1292 -861 1858 -123 153 -431 467 -576 584 -559 454 -1163
718 -1772 775 -103 9 -332 11 -400 4z"/>
<path d="M16375 11045 c-711 -81 -1411 -441 -1996 -1024 -321 -321 -562 -647
-769 -1045 -165 -314 -296 -679 -365 -1012 -14 -66 -27 -129 -30 -141 l-5 -23
354 0 354 0 7 33 c13 57 76 239 117 337 217 510 583 1025 1047 1471 230 222
441 379 636 474 171 84 279 104 360 66 55 -25 88 -64 87 -100 -2 -76 -73 -154
-447 -491 -277 -250 -437 -405 -562 -542 -295 -325 -478 -612 -573 -897 -34
-102 -70 -261 -70 -310 0 -15 31 -19 273 -35 149 -9 297 -20 328 -23 l56 -6
63 109 c345 590 803 1091 1287 1408 561 368 1163 546 1983 587 124 6 226 12
228 13 1 2 -21 34 -50 72 -450 599 -1045 974 -1698 1070 -149 21 -467 26 -615
9z"/>
<path d="M18220 9496 c-217 -28 -398 -71 -621 -146 -885 -298 -1671 -944
-1959 -1610 -22 -50 -40 -92 -40 -94 0 -2 19 -9 43 -15 54 -17 207 -93 265
-133 79 -54 192 -169 243 -247 27 -41 49 -81 49 -88 0 -28 17 -9 60 69 25 44
88 147 141 227 479 733 1140 1182 1928 1310 279 46 607 51 904 15 76 -9 140
-14 143 -11 7 7 -57 169 -103 262 -51 102 -99 180 -164 266 -96 126 -142 156
-284 184 -120 23 -460 29 -605 11z"/>
<path d="M5200 9460 c-92 -12 -201 -36 -247 -55 -43 -18 -173 -143 -256 -245
-103 -127 -258 -373 -244 -386 3 -3 69 3 148 13 198 24 612 24 794 0 679 -91
1238 -363 1715 -837 215 -214 419 -480 550 -718 25 -45 47 -82 50 -82 3 1 21
28 40 61 44 77 116 160 192 222 73 58 218 130 310 154 37 10 68 23 68 29 0 7
-27 66 -59 131 -112 221 -246 400 -465 618 -552 549 -1367 971 -2086 1080
-128 19 -408 27 -510 15z"/>
<path d="M9450 7350 c-607 -44 -976 -159 -1267 -394 -108 -87 -224 -227 -302
-366 -190 -336 -289 -792 -317 -1462 -6 -140 -5 -168 7 -168 8 0 822 0 1809 0
987 0 1801 0 1808 0 9 0 12 135 12 640 l0 640 -1155 0 -1155 0 0 48 c0 166
102 275 300 321 174 41 239 43 1138 48 l872 5 0 338 c0 212 -4 341 -10 345
-16 10 -1606 14 -1740 5z"/>
<path d="M13018 7353 l-238 -3 0 -345 0 -345 848 0 c843 1 972 -3 1123 -35
217 -46 311 -139 334 -332 l6 -53 -1156 0 -1155 0 0 -640 0 -640 1816 -2 c999
-2 1817 -1 1819 2 5 9 -14 410 -25 530 -61 647 -219 1082 -496 1370 -288 299
-703 445 -1389 490 -135 9 -867 10 -1487 3z"/>
<path d="M11872 7325 c-183 -41 -327 -163 -399 -337 -32 -77 -43 -228 -23
-316 54 -246 275 -424 527 -425 259 -1 478 173 538 424 63 269 -95 549 -361
638 -82 27 -202 34 -282 16z"/>
<path d="M11891 5488 c-123 -183 -461 -681 -635 -937 l-126 -185 107 -22 c351
-72 591 -243 738 -525 l42 -82 18 54 c98 299 354 485 765 556 52 9 97 18 99
19 3 2 -873 1236 -899 1267 -3 4 -52 -62 -109 -145z"/>
</g>
</svg>
