<?xml version="1.0" encoding="UTF-8"?>
<!DOCTYPE svg PUBLIC "-//W3C//DTD SVG 1.1//EN" "http://www.w3.org/Graphics/SVG/1.1/DTD/svg11.dtd">
<!-- Creator: CorelDRAW 2020 (64-Bit) -->
<svg xmlns="http://www.w3.org/2000/svg" xml:space="preserve" width="300px" height="300px" version="1.1" style="shape-rendering:geometricPrecision; text-rendering:geometricPrecision; image-rendering:optimizeQuality; fill-rule:evenodd; clip-rule:evenodd"
viewBox="0 0 366.55 366.55"
 xmlns:xlink="http://www.w3.org/1999/xlink"
 xmlns:xodm="http://www.corel.com/coreldraw/odm/2003">
 <defs>
  <style type="text/css">
   <![CDATA[
    .fil0 {fill:none}
    .fil1 {fill:#1A0959}
    .fil2 {fill:#C00026}
   ]]>
  </style>
 </defs>
 <g id="__x0023_Layer_x0020_3">
  <metadata id="CorelCorpID_0Corel-Layer"/>
  <rect class="fil0" width="366.55" height="366.55"/>
  <path class="fil1" d="M179.34 284.46l14.78 0c-0.24,10.13 -0.09,19.59 -0.33,29.72 -0.18,4.16 -2.76,7.07 -6.81,7.51 -4.44,0 -7.22,-2.86 -7.45,-7.63l-0.19 -29.6zm11.12 20.3l-0.38 1.98 -0.16 0.53 -0.17 0.53 -0.21 0.5 -0.26 0.51 -0.24 0.46 -0.22 0.37 -0.23 0.3 -0.2 0.21 -0.22 0.19 -0.35 0.24 -0.43 0.25 -0.5 0.29 -0.29 0.16 -0.29 0.13 -0.26 0.16 -0.26 0.16 -0.57 0.29 -0.47 0.24 -0.35 0.17 -0.26 0.16 -0.56 0.25 -0.47 0.19 -0.37 0.13 -0.3 0.08 -0.24 -0.07 0.01 -0.09 0.06 -0.15 0.11 -0.17 0.2 -0.21 0.24 -0.26 0.29 -0.27 0.34 -0.32 0.42 -0.36 1.87 -1.78 0.24 -0.22 0.24 -0.26 0.28 -0.27 0.26 -0.31 0.3 -0.31 0.29 -0.36 0.28 -0.4 0.27 -0.42 0.15 -0.21 0.13 -0.22 0.1 -0.21 0.1 -0.22 0.08 -0.21 0.07 -0.23 0.05 -0.21 0.03 -0.2 -0.03 -0.13 0.01 -0.17 -1.42 0.33 -0.24 0.04 -0.24 0.03 -0.25 -0.03 -0.23 -0.02 -0.2 -0.03 -0.21 -0.08 -0.21 -0.07 -0.2 -0.12 -0.2 -0.12 -0.15 -0.12 -0.15 -0.13 -0.1 -0.14 -0.11 -0.15 -0.06 -0.17 -0.06 -0.16 -0.02 -0.18 0 -0.22 0.01 -0.22 0.04 -0.27 0.03 -0.27 0.07 -0.36 0.12 -0.49 0.16 -0.59 0.21 -0.72 0.16 -0.51 0.15 -0.45 0.18 -0.42 0.15 -0.4 0.15 -0.23 0.15 -0.22 0.13 -0.18 0.14 -0.16 0.17 -0.13 0.15 -0.1 0.15 -0.07 0.17 -0.05 0.28 -0.03 0.27 0 0.28 0.02 0.25 0.04 0.27 0.09 0.27 0.1 0.25 0.14 0.25 0.15 0.26 0.17 0.21 0.21 0.2 0.21 0.17 0.23 0.15 0.24 0.13 0.26 0.09 0.29 0.08 0.27 0.05 0.32 0.07 0.3 0.01 0.3 0.02 0.31 0.01 0.28 0.02 0.29 0 0.26 0.01 0.24 0 0.24 -0.01 0.27 0.01 0.3 -0.03 0.31 0 0.31 -0.04 0.29 -0.06 0.28 -0.04 0.25z"/>
  <polygon class="fil1" points="162.2,85.99 205.44,85.99 205.8,86 206.17,86.04 206.52,86.11 206.84,86.22 207.16,86.32 207.47,86.48 207.75,86.65 208,86.84 208.24,87.04 208.44,87.27 208.63,87.5 208.78,87.75 208.89,88.01 209,88.3 209.04,88.58 209.06,88.89 209.04,89.17 209,89.45 208.89,89.74 208.78,90.01 208.63,90.26 208.44,90.51 208.24,90.72 208,90.93 207.75,91.11 207.47,91.29 207.16,91.43 206.84,91.55 206.52,91.64 206.17,91.71 205.8,91.77 205.44,91.79 162.2,91.79 161.84,91.77 161.49,91.71 161.13,91.64 160.8,91.55 160.48,91.43 160.2,91.29 159.92,91.11 159.66,90.93 159.42,90.72 159.21,90.51 159.04,90.26 158.88,90.01 158.75,89.74 158.67,89.45 158.6,89.17 158.58,88.89 158.6,88.58 158.67,88.3 158.75,88.01 158.88,87.75 159.04,87.5 159.21,87.27 159.42,87.04 159.66,86.84 159.92,86.65 160.2,86.48 160.48,86.32 160.8,86.22 161.13,86.11 161.49,86.04 161.84,86 "/>
  <polygon class="fil1" points="157.27,76.44 209.3,76.44 209.74,76.46 210.18,76.51 210.6,76.58 210.99,76.66 211.37,76.78 211.72,76.92 212.07,77.09 212.38,77.26 212.67,77.47 212.91,77.67 213.13,77.91 213.3,78.15 213.46,78.4 213.57,78.68 213.61,78.81 213.63,78.95 213.66,79.09 213.66,79.22 213.66,79.38 213.63,79.51 213.61,79.65 213.57,79.79 213.46,80.06 213.3,80.32 213.13,80.56 212.91,80.78 212.67,81 212.38,81.19 212.07,81.38 211.72,81.53 211.37,81.69 210.99,81.79 210.6,81.89 210.18,81.96 209.74,82.01 209.3,82.01 157.27,82.01 156.8,82.01 156.39,81.96 155.97,81.89 155.57,81.79 155.17,81.69 154.82,81.53 154.49,81.38 154.18,81.19 153.9,81 153.63,80.78 153.41,80.56 153.24,80.32 153.08,80.06 153,79.79 152.95,79.65 152.93,79.51 152.91,79.38 152.89,79.22 152.91,79.09 152.93,78.95 152.95,78.81 153,78.68 153.08,78.4 153.24,78.15 153.41,77.91 153.63,77.67 153.9,77.47 154.18,77.26 154.49,77.09 154.82,76.92 155.17,76.78 155.57,76.66 155.97,76.58 156.39,76.51 156.8,76.46 "/>
  <polygon class="fil1" points="152.97,67.06 214.1,67.06 214.62,67.08 215.13,67.12 215.62,67.19 216.09,67.3 216.54,67.43 216.96,67.58 217.36,67.74 217.72,67.95 218.06,68.16 218.35,68.39 218.62,68.64 218.82,68.9 218.91,69.03 218.99,69.18 219.06,69.31 219.13,69.45 219.17,69.6 219.2,69.75 219.22,69.91 219.22,70.06 219.22,70.21 219.2,70.37 219.17,70.52 219.13,70.67 219.06,70.81 218.99,70.94 218.91,71.09 218.82,71.22 218.62,71.49 218.35,71.73 218.06,71.97 217.72,72.18 217.36,72.38 216.96,72.54 216.54,72.69 216.09,72.82 215.62,72.93 215.13,73 214.62,73.04 214.1,73.06 152.97,73.06 152.46,73.04 151.94,73 151.45,72.93 150.98,72.82 150.54,72.69 150.11,72.54 149.73,72.38 149.35,72.18 149.04,71.97 148.73,71.73 148.48,71.49 148.26,71.22 148.17,71.09 148.08,70.94 148.01,70.81 147.97,70.67 147.92,70.52 147.88,70.37 147.86,70.21 147.86,70.06 147.86,69.91 147.88,69.75 147.92,69.6 147.97,69.45 148.01,69.31 148.08,69.18 148.17,69.03 148.26,68.9 148.48,68.64 148.73,68.39 149.04,68.16 149.35,67.95 149.73,67.74 150.11,67.58 150.54,67.43 150.98,67.3 151.45,67.19 151.94,67.12 152.46,67.08 "/>
  <path class="fil2" d="M152.61 64.36l59.91 0c-6.68,-16.29 25.91,-32.85 10.08,-43.32 1,8.43 -4.14,12.72 -9.93,17.19l-0.79 0.54c7.59,-13.04 7.93,-27.83 -6.61,-35.82 3.5,4.45 4.99,10.68 2.38,16.61 -5.26,9.3 -17.63,14.89 -25.89,20.82 -0.85,-13 -5.5,-22.56 -18.93,-26.92 5.15,6.04 5.59,10.94 1.49,18.08 -5.91,9.47 -17.55,17.38 -14.19,31.16 0.48,0.93 0.93,1.67 2.48,1.66z"/>
  <path class="fil1" d="M136.91 226.81c-4.37,5.97 -7.74,8.63 -11.11,21 -3.59,16.91 3.37,23.79 17.73,12.91 6.23,-6.55 9,-8.75 14.94,-22.29 6.15,2.21 8.31,3.26 15.39,3.2 -0.68,7.4 -0.67,12.44 0.15,19.73 5.22,23.08 18.97,25.06 24.65,1.35 1.61,-6.38 1.4,-13.85 0.83,-20.96 4.91,0 9.11,-0.86 13.65,-2.75 4.14,11.47 6.17,12.47 13.65,20.41 15.78,12.28 22.26,3.11 19.35,-12.85 -2.35,-8.74 -3.94,-10.43 -12.62,-20.6 4.99,-3.61 9.03,-7.48 13.05,-12.11 9.36,6.67 12.88,7.72 21.18,10.17 15.56,3.35 23.28,-4.19 13.03,-16.48 -8.58,-8.58 -11.38,-10.71 -22.31,-15.48 1.06,-4.34 1.71,-10.16 1.41,-15.7 11.46,0.31 17.16,0.75 27.07,-1.53 12.16,-3.85 18.69,-15.78 -0.11,-21.27 -10.33,-1.65 -14.77,-1.68 -26.56,-0.78 -0.82,-6.12 -1.82,-10.21 -3.39,-15.88 7.87,-4.05 13.54,-6.69 20.49,-14 10.44,-10.66 4.59,-24.07 -13.3,-18.18 -10.92,4.56 -9.65,4.03 -21.16,11.22 -2.76,-2.86 -5.8,-5.48 -8.99,-7.24 2.72,-7.83 8.61,-16.85 10.68,-26.08 2.8,-11.82 -3.91,-23.65 -18.51,-9.86 -13.43,12.36 -17.18,28.3 -20.75,39.94 22.61,8.29 37.88,31.81 36.73,57.4 -2.42,30.43 -28.7,53.39 -58.59,53.79 -31.77,-0.71 -54.63,-27.37 -56.88,-56.14 -0.55,-23.45 14.77,-45.15 35.97,-54.8 -6.63,-20.32 -10.36,-27.67 -19.31,-37.51 -17.68,-16.21 -23.29,-0.72 -20.43,11.71 1.64,6.75 3.21,10.66 10.95,21.26 -4.93,3.8 -5.89,5.89 -9.91,10.64 -8.12,-5.39 -13.37,-8.88 -21.03,-11.37 -10.55,-2.43 -24.44,0.77 -15.93,15.04 2.87,5.12 12.01,12.85 24.26,18.03 -0.65,4.34 -1.3,8.34 -1.09,14.45 -9.3,0.21 -11.81,-0.22 -22.55,0.53 -12.18,0.6 -25.02,12.85 -8.68,21.78 13.09,4.99 19.5,4.15 31.25,3.82 0.12,5.31 1.15,9.06 2.93,14.12 -8.02,3.72 -11.43,3.97 -19.37,11.82 -13.56,16.23 -4.43,26.34 15.02,19.53 5.86,-2.5 10.83,-5.55 17.13,-10.61 3.85,4.81 6.22,6.78 11.09,10.62z"/>
  <polygon class="fil1" points="341.35,300.06 341.35,300.06 341.35,300.65 341.29,301.24 341.23,301.8 341.17,302.36 341.05,302.92 340.94,303.45 340.79,304.01 340.61,304.54 340.2,305.6 339.73,306.69 339.2,307.81 338.58,308.93 338.34,309.34 338.08,309.75 337.76,310.16 337.37,310.55 337.11,310.78 336.75,311.05 336.37,311.31 335.9,311.58 335.31,311.87 334.57,312.2 333.66,312.58 332.57,313.02 330.74,313.67 330.51,313.7 330.33,313.7 330.24,313.7 330.19,313.67 330.13,313.64 330.1,313.58 330.04,313.46 330.04,313.35 330.04,313.23 330.1,313.08 330.27,312.9 330.57,312.58 331.01,312.14 331.6,311.61 333.84,309.69 334.4,309.22 334.96,308.72 335.52,308.19 336.05,307.63 336.37,307.28 336.66,306.95 336.9,306.66 337.11,306.39 337.26,306.16 337.37,305.92 337.43,305.74 337.46,305.6 337.46,305.36 337.43,305.16 337.37,304.92 337.31,304.71 337.14,304.24 336.9,303.74 336.78,303.57 336.61,303.3 336.34,302.92 336.02,302.47 335.63,302 335.25,301.56 334.84,301.18 334.43,300.86 334.04,300.56 333.78,300.32 333.69,300.21 333.63,300.12 333.57,300.06 333.57,300 334.78,297.17 336.31,293.7 336.43,293.49 336.58,293.31 336.72,293.14 336.9,292.99 336.9,292.93 336.96,292.84 337.4,293.25 337.78,293.61 338.11,293.87 338.37,294.14 339.11,294.82 339.7,295.46 339.93,295.73 340.14,295.99 340.32,296.23 340.44,296.47 340.64,296.88 340.82,297.29 341,297.73 341.11,298.17 341.23,298.65 341.29,299.09 341.32,299.59 "/>
  <polygon class="fil1" points="324.24,295.74 324.24,295.74 322.54,299.79 321.99,301.48 321.98,301.86 321.98,302.26 321.97,302.66 321.97,303.08 321.96,303.51 321.93,303.96 321.93,304.42 321.93,304.89 321.9,305.36 321.88,305.87 321.86,306.39 321.81,306.93 321.74,307.49 321.66,308.07 321.59,308.66 321.49,309.27 321.43,309.69 321.35,310.19 321.21,310.76 321.06,311.41 320.91,312.12 320.74,312.84 320.57,313.54 320.37,314.27 320.62,314.63 320.71,314.63 320.82,314.6 320.9,314.54 320.99,314.49 321.17,314.35 321.38,314.13 321.61,313.82 321.91,313.4 322.25,312.86 322.67,312.19 323.95,309.53 324.17,308.94 324.36,308.34 324.56,307.79 324.69,307.25 324.8,306.68 324.89,306.05 324.95,305.36 325.03,304.57 325.18,299.8 325.21,296.81 325.32,294.97 325.31,294.89 325.27,294.8 325.17,294.7 325.07,294.57 324.85,294.76 324.75,294.9 324.58,295.16 324.46,295.37 324.34,295.58 "/>
  <polygon class="fil1" points="320.06,271.89 320.06,271.89 320.12,272.28 320.12,272.63 320.06,273.01 319.97,273.43 319.83,273.84 319.65,274.28 319.44,274.75 319.18,275.25 318.91,275.75 318.56,276.25 318.18,276.69 317.73,277.14 317.47,277.37 317.23,277.55 317,277.67 316.82,277.7 316.67,277.67 316.47,277.55 316.2,277.34 315.85,277.08 315.5,276.75 315.14,276.49 314.82,276.22 314.52,275.96 314.23,275.75 313.96,275.52 313.73,275.31 313.49,275.07 313.32,274.9 313.17,274.69 313.11,274.51 313.08,274.37 313.26,273.95 313.43,273.57 313.58,273.25 313.7,272.95 314.02,272.25 314.32,271.63 314.58,271.1 314.76,270.68 315.08,270.16 315.41,269.62 315.73,269.07 316.06,268.51 316.23,268.24 316.47,267.86 316.67,268.06 316.88,268.21 317.15,268.39 317.47,268.56 318.15,269.15 318.71,269.62 319.12,270.07 319.44,270.42 319.65,270.74 319.86,271.1 319.97,271.48 "/>
  <polygon class="fil1" points="294.43,271.59 294.43,271.59 294.34,271.18 294.23,270.8 294.02,270.44 293.81,270.09 293.49,269.74 293.08,269.33 292.52,268.82 291.84,268.26 291.52,268.06 291.25,267.91 291.05,267.73 290.84,267.56 290.6,267.91 290.43,268.18 290.1,268.77 289.78,269.3 289.45,269.86 289.13,270.38 288.95,270.8 288.69,271.3 288.42,271.92 288.07,272.65 287.95,272.92 287.81,273.24 287.63,273.63 287.45,274.07 287.48,274.21 287.54,274.39 287.69,274.57 287.86,274.77 288.1,274.98 288.34,275.22 288.6,275.45 288.9,275.69 289.19,275.95 289.54,276.22 289.87,276.48 290.25,276.78 290.57,277.04 290.84,277.25 291.05,277.34 291.19,277.4 291.37,277.37 291.61,277.25 291.84,277.07 292.11,276.84 292.55,276.39 292.93,275.92 293.28,275.45 293.55,274.95 293.81,274.45 294.02,273.98 294.2,273.54 294.34,273.09 294.43,272.71 294.49,272.33 294.49,271.95 "/>
  <polygon class="fil1" points="298.12,280.37 298.12,280.37 298.03,279.96 297.91,279.58 297.7,279.19 297.5,278.87 297.17,278.52 296.76,278.1 296.2,277.6 295.49,277.04 295.2,276.84 294.93,276.69 294.73,276.51 294.52,276.34 294.26,276.69 294.08,276.95 293.78,277.51 293.46,278.07 293.14,278.63 292.81,279.16 292.61,279.58 292.37,280.08 292.08,280.7 291.75,281.43 291.63,281.7 291.49,282.02 291.31,282.4 291.13,282.85 291.13,282.99 291.22,283.17 291.37,283.35 291.55,283.55 291.78,283.76 292.02,283.97 292.28,284.2 292.58,284.44 292.87,284.67 293.2,284.94 293.55,285.23 293.9,285.53 294.26,285.82 294.52,286 294.73,286.12 294.87,286.17 295.05,286.12 295.29,286.03 295.52,285.85 295.79,285.58 296.23,285.17 296.61,284.7 296.94,284.23 297.23,283.73 297.5,283.23 297.7,282.76 297.88,282.31 298.03,281.87 298.12,281.49 298.17,281.11 298.17,280.72 "/>
  <polygon class="fil1" points="290.84,280.78 290.84,280.78 290.75,280.37 290.6,279.99 290.43,279.63 290.19,279.31 289.9,278.96 289.45,278.52 288.9,278.01 288.22,277.45 287.89,277.28 287.66,277.1 287.45,276.95 287.22,276.75 286.98,277.13 286.8,277.4 286.48,277.96 286.15,278.52 285.86,279.05 285.54,279.58 285.33,279.99 285.1,280.49 284.8,281.11 284.48,281.84 284.36,282.11 284.21,282.46 284.03,282.82 283.83,283.26 283.86,283.41 283.95,283.58 284.06,283.76 284.27,283.97 284.48,284.17 284.71,284.41 285.01,284.61 285.27,284.85 285.6,285.08 285.92,285.35 286.27,285.64 286.63,285.94 286.95,286.23 287.25,286.44 287.45,286.56 287.57,286.59 287.69,286.59 287.78,286.56 287.86,286.5 287.98,286.44 288.25,286.26 288.51,286.03 288.92,285.58 289.34,285.14 289.66,284.64 289.96,284.14 290.19,283.64 290.43,283.17 290.6,282.73 290.72,282.31 290.84,281.9 290.87,281.52 290.9,281.14 "/>
  <polygon class="fil1" points="267.63,276.36 267.63,276.36 267.13,277.07 266.54,277.87 265.83,278.75 265.03,279.69 264.27,280.55 263.39,281.55 262.32,282.7 261.12,283.99 260.73,284.47 260.41,284.91 260.14,285.32 259.94,285.67 259.76,286.03 259.58,286.41 259.41,286.85 259.23,287.32 259.97,286.59 260.73,285.85 261.5,285.11 262.27,284.35 263.12,283.43 263.89,282.58 264.56,281.76 265.21,281.02 265.74,280.34 266.21,279.69 266.63,279.13 266.92,278.63 267.1,278.31 267.24,278.01 267.33,277.75 267.42,277.48 267.6,277.01 267.69,276.69 267.71,276.54 267.71,276.45 267.69,276.39 "/>
  <path class="fil1" d="M250.07 303.31l0 0 0.05 -0.09 0.06 -0.09 0.39 -0.37 0.67 -0.72 0.95 -1.02 1.2 -1.35 0.61 -0.69 0.65 -0.73 0.64 -0.75 0.67 -0.78 0.69 -0.81 0.69 -0.83 0.73 -0.87 0.75 -0.87 1.28 -1.53 1.19 -1.47 1.17 -1.4 1.08 -1.35 1.02 -1.31 0.97 -1.26 0.91 -1.19 0.86 -1.13 0.79 -1.08 0.78 -1.07 0.71 -1.01 0.65 -0.98 0.64 -0.92 0.6 -0.89 0.54 -0.86 0.52 -0.83 0.19 -0.38 0.16 -0.3 0.05 -0.11 0.09 -0.07 0.05 -0.06 0.06 0 0.06 0.08 0.04 0.11 0.04 0.12 0.01 0.17 -0.07 0.4 -0.06 0.44 -0.07 0.4 -0.07 0.41 -0.16 0.75 -0.23 0.73 -0.28 0.73 -0.28 0.76 -0.35 0.73 -0.34 0.76 -0.4 0.77 -0.46 0.77 -0.52 0.88 -0.65 1.01 -0.83 1.19 -0.96 1.34 -0.58 0.78 -0.58 0.77 -0.63 0.84 -0.67 0.83 -0.66 0.84 -0.69 0.87 -0.75 0.9 -0.75 0.89 -8.01 9.59 0.6 -0.03 0.56 0 0.59 0 0.6 -0.01 0.56 0.03 0.6 0.02 0.59 0.03 0.57 0.06 0.6 0.05 0.65 0.08 0.72 0.08 0.75 0.07 0.78 0.13 0.83 0.1 0.9 0.13 0.93 0.12 1.43 0.18 1.35 0.16 1.25 0.13 1.16 0.11 1.08 0.12 0.98 0.09 0.87 0.07 0.8 0.04 0.72 0.05 0.71 0.05 0.69 0.02 0.68 -0.01 0.65 0.02 0.62 0 0.63 -0.03 0.59 -0.04 0 -0.02 3.7 -0.06 1.87 -0.12 1.8 -0.16 1.77 -0.18 1.71 -0.23 1.67 -0.26 1.65 -0.29 1.61 -0.34 1.58 -0.37 0.91 -0.25 0.91 -0.25 0.93 -0.28 0.9 -0.3 0.94 -0.31 0.95 -0.34 0.94 -0.33 0.96 -0.37 0.95 -0.39 0.96 -0.4 0.98 -0.42 0.96 -0.45 1.99 -0.94 1.99 -1.02 0.89 -0.48 0.93 -0.5 0.89 -0.51 0.89 -0.53 0.86 -0.54 0.85 -0.56 0.86 -0.59 0.86 -0.58 0.83 -0.59 0.88 -0.65 0.85 -0.68 0.88 -0.67 0.91 -0.74 0.88 -0.76 0.93 -0.76 0.94 -0.83 0.7 -0.67 0.65 -0.63 0.56 -0.57 0.5 -0.55 0.45 -0.51 0.36 -0.42 0.27 -0.38 0.22 -0.33 0.08 -0.18 0.08 -0.17 0.05 -0.21 0.04 -0.23 0.1 -0.49 0.02 -0.57 0 -0.57 0.06 -0.49 0.05 -0.21 0.08 -0.17 0.05 -0.18 0.08 -0.12 0.48 -1 0.5 -0.97 0.48 -1 0.51 -1 0.29 -0.53 0.36 -0.62 0.4 -0.68 0.46 -0.8 0.12 -0.06 0.14 -0.06 -0.01 0.25 -0.03 0.52 -0.08 0.78 -0.12 1.04 -0.05 0.57 -0.09 0.58 -0.08 0.58 -0.09 0.55 -0.12 0.57 -0.09 0.55 -0.11 0.58 -0.15 0.55 -0.17 0.73 -0.16 0.69 -0.2 0.64 -0.21 0.62 -0.2 0.55 -0.21 0.53 -0.21 0.5 -0.21 0.44 -0.38 0.62 -0.38 0.65 -0.41 0.62 -0.41 0.62 -0.47 0.66 -0.47 0.62 -0.52 0.63 -0.53 0.66 -0.56 0.63 -0.55 0.66 -0.62 0.64 -0.62 0.66 -0.64 0.63 -0.68 0.64 -0.7 0.67 -0.71 0.64 -1.5 1.28 -1.5 1.25 -1.54 1.17 -1.56 1.14 -1.6 1.09 -1.64 1.03 -1.63 1 -1.67 0.92 -1.82 0.96 -1.81 0.9 -1.83 0.84 -1.82 0.75 -1.86 0.73 -1.89 0.7 -1.87 0.62 -1.89 0.55 -1.93 0.51 -1.94 0.47 -1.96 0.39 -1.94 0.36 -2 0.31 -1.97 0.25 -2.01 0.16 -2.04 0.14 0 0.03 0 0.03 -1.57 0.05 -1.45 0.05 -1.34 0.01 -1.28 -0.05 -1.13 -0.05 -1.07 -0.09 -0.96 -0.09 -0.87 -0.15 -0.51 -0.12 -0.51 -0.12 -0.48 -0.14 -0.51 -0.17 -0.49 -0.18 -0.51 -0.2 -0.49 -0.2 -0.49 -0.24 -0.49 -0.23 -0.46 -0.26 -0.49 -0.29 -0.46 -0.29 -0.49 -0.32 -0.47 -0.32 -0.46 -0.34 -0.44 -0.38 -0.12 0.06 -0.08 0.12 -0.1 0.21 -0.14 0.29 -0.25 0.84 -0.32 1.14 -0.19 0.75 -0.22 0.79 -0.25 0.84 -0.28 0.84 -0.29 0.71 -0.31 0.67 -0.32 0.65 -0.35 0.62 -0.39 0.59 -0.38 0.57 -0.41 0.53 -0.42 0.48 -0.53 0.58 -0.54 0.48 -0.28 0.22 -0.29 0.21 -0.28 0.19 -0.26 0.16 -0.29 0.13 -0.29 0.16 -0.29 0.1 -0.29 0.1 -0.27 0.07 -0.29 0.04 -0.29 0.05 -0.3 0.04 -0.29 -0.01 -0.27 -0.01 -0.27 -0.02 -0.27 -0.04 -0.24 -0.08 -0.24 -0.07 -0.27 -0.07 -0.22 -0.13 -0.25 -0.13 -0.21 -0.13 -0.25 -0.16 -0.19 -0.19 -0.22 -0.19 -0.21 -0.19 -0.2 -0.25 -0.19 -0.25 -0.16 -0.24 -0.19 -0.28 -0.17 -0.28 -0.14 -0.31 -0.27 -0.61 -0.24 -0.68 -0.19 -0.73 -0.17 -0.79 -0.1 -0.83 -0.08 -0.88 -0.03 -0.49 0.01 -0.28 -0.01 -0.26 -0.02 -0.26 0.02 -0.26 -0.02 -0.85 -0.02 -0.89 0.01 -0.86 0.01 -0.89 0.03 -0.57 0.02 -0.63 0.05 -0.66 0.02 -0.72 0.01 -0.77 0.05 -0.78 0.04 -0.83 0.04 -0.89 0.26 -5.37 0.61 -6.91 2.49 -7.43 0.08 -0.06 0.12 -0.09 0.06 0.05 0.04 0.11 0 0.15 0.01 0.17 0 0.37 -0.01 0.49 0.01 0.6 -0.05 0.72 -0.04 0.8 -0.07 0.92 -0.06 1.03 -0.08 1.13 -0.06 0.66 -0.05 0.69 -0.04 0.77 -0.07 0.86 -0.07 0.93 -0.06 0.97 -0.09 1.07 -0.08 1.15 -0.09 1.09 -0.09 0.95 -0.04 0.8 -0.05 0.66 -0.06 0.55 -0.04 0.38 -0.02 0.25 0.01 0.12 -0.03 0.51 -0.03 0.52 0 0.49 -0.03 0.49zm9.19 5.67l-0.01 -0.15 -0.03 -0.17 -0.04 -0.14 -0.07 -0.14 -0.07 -0.14 -0.09 -0.14 -0.13 -0.1 -0.09 -0.11 -0.31 -0.24 -0.34 -0.19 -0.43 -0.17 -0.48 -0.15 -0.48 -0.12 -0.51 -0.11 -0.45 -0.09 -0.48 -0.06 -0.42 -0.07 -0.45 0 -0.41 -0.01 -0.39 -0.01 -0.32 0.05 -0.33 0.04 -0.29 0.05 -0.26 0.1 -0.23 0.09 -0.23 0.13 -0.2 0.15 -0.17 0.16 -0.17 0.18 -0.14 0.21 -0.1 0.2 -0.08 0.26 -0.04 0.23 -0.05 0.29 -0.01 0.29 -0.01 0.32 0.05 0.45 0.06 0.43 0.05 0.37 0.08 0.34 0.1 0.31 0.11 0.28 0.13 0.25 0.16 0.22 0.23 0.27 0.31 0.24 0.33 0.19 0.37 0.18 0.39 0.09 0.45 0.09 0.51 0.03 0.53 -0.02 0.59 -0.04 0.56 -0.11 0.53 -0.12 0.46 -0.19 0.44 -0.2 0.4 -0.28 0.17 -0.12 0.17 -0.15 0.13 -0.18 0.17 -0.18 0.22 -0.27 0.16 -0.33 0.16 -0.29 0.13 -0.32 0.11 -0.32 0.03 -0.35 0.04 -0.34 -0.02 -0.37z"/>
  <path class="fil1" d="M238.29 308.52l0 0 -0.03 0.76 -0.12 0.8 -0.15 0.85 -0.2 0.92 -0.27 0.88 -0.29 0.86 -0.36 0.82 -0.35 0.77 -0.32 0.58 -0.33 0.54 -0.32 0.53 -0.33 0.47 -0.32 0.41 -0.32 0.41 -0.33 0.35 -0.32 0.36 -0.33 0.26 -0.35 0.27 -0.35 0.2 -0.36 0.18 -0.38 0.15 -0.38 0.09 -0.39 0.06 -0.41 0.02 -0.29 -0.02 -0.3 -0.03 -0.26 -0.06 -0.27 -0.09 -0.2 -0.12 -0.21 -0.12 -0.21 -0.17 -0.17 -0.18 -0.15 -0.21 -0.12 -0.23 -0.12 -0.24 -0.08 -0.29 -0.06 -0.3 -0.06 -0.32 -0.03 -0.35 0 -0.39 0.03 -0.53 0.06 -0.56 0.11 -0.59 0.15 -0.59 1.12 -2.41 1.06 -1.83 -0.32 -0.11 -0.21 -0.06 -0.09 -0.03 -0.08 0 0 -0.21 0.08 -0.32 0.12 -0.42 0.24 -0.56 0.35 -0.82 0.32 -0.74 0.3 -0.62 0.23 -0.5 1.27 -2.91 0.09 -0.18 0.09 -0.18 0.09 -0.14 0.08 -0.12 0.12 -0.09 0.09 -0.09 0.12 -0.03 0.09 0 0.2 0.03 0.24 0.06 0.29 0.15 0.33 0.17 0.35 0.21 0.3 0.21 0.29 0.17 0.27 0.18 0.53 0.53 0.44 0.53 0.17 0.24 0.18 0.23 0.15 0.27 0.12 0.23 0.11 0.27 0.09 0.26 0.09 0.36 0.06 0.35 0.03 0.38 0.06 0.44 0 0.45 0.03 0.5zm-3.33 5.45l0 0 -0.03 -0.24 -0.03 -0.23 -0.06 -0.24 -0.06 -0.21 -0.12 -0.17 -0.11 -0.21 -0.15 -0.18 -0.15 -0.14 -0.2 -0.18 -0.24 -0.21 -0.27 -0.17 -0.29 -0.18 -0.29 -0.18 -0.3 -0.11 -0.23 -0.09 -0.24 -0.03 -0.09 0.03 -0.09 0.06 -0.09 0.09 -0.14 0.11 -0.3 0.39 -0.35 0.5 -0.18 0.29 -0.15 0.27 -0.14 0.26 -0.12 0.27 -0.09 0.23 -0.06 0.24 -0.03 0.23 0 0.21 0 0.21 0.03 0.17 0.03 0.15 0.06 0.18 0.06 0.11 0.06 0.15 0.12 0.12 0.08 0.09 0.12 0.09 0.15 0.09 0.15 0.05 0.17 0.06 0.36 0.06 0.44 0.03 0.21 0 0.23 -0.03 0.21 -0.06 0.23 -0.06 0.24 -0.08 0.21 -0.09 0.23 -0.12 0.24 -0.15 0.23 -0.15 0.21 -0.17 0.15 -0.15 0.14 -0.18 0.09 -0.17 0.09 -0.18 0.03 -0.18 0.03 -0.2z"/>
  <polygon class="fil1" points="210.01,306.09 210.01,306.09 213.66,299.79 213.73,299.82 213.71,299.79 215.92,295.84 216.08,295.46 216.23,295.04 216.36,294.61 216.46,294.15 216.54,293.67 216.61,293.19 216.66,292.64 216.69,292.08 216.69,291.82 216.69,291.51 216.69,291.48 216.82,288.89 216.84,288.49 216.89,287.83 216.97,286.92 217.1,285.75 217.22,284.56 217.35,283.56 217.48,282.76 217.6,282.14 217.73,281.59 217.88,281.03 218.09,280.4 218.32,279.72 218.57,278.95 218.9,278.12 219.31,277.18 219.74,276.16 219.85,276.04 219.92,275.96 219.97,275.9 220.05,275.9 220.1,275.93 220.13,275.99 220.15,276.13 220.18,276.3 220.15,276.78 220.08,277.55 219.95,278.55 219.77,279.8 219.62,281.05 219.46,282.08 219.39,282.82 219.34,283.33 219.21,286.27 219.18,286.47 219.21,287.04 219.24,287.58 219.29,288.09 219.34,288.54 219.41,289 219.49,289.4 219.62,289.77 219.72,290.11 219.82,290.31 219.95,290.51 220.08,290.71 220.23,290.88 220.38,291.02 220.56,291.16 220.76,291.28 220.99,291.39 221.22,291.48 221.45,291.56 221.66,291.62 221.91,291.65 222.14,291.68 222.37,291.68 222.6,291.68 222.85,291.65 223.06,291.05 223.23,290.45 223.44,289.88 223.62,289.31 223.72,289.09 223.9,288.6 224.2,287.8 224.64,286.69 224.81,286.27 225.02,285.87 225.2,285.47 225.4,285.1 225.6,284.76 225.81,284.41 226.04,284.1 226.26,283.82 226.6,283.42 226.95,283.08 227.34,282.79 227.72,282.56 228.1,282.39 228.48,282.25 228.89,282.16 229.3,282.14 229.68,282.16 230.04,282.22 230.34,282.31 230.62,282.45 230.75,282.54 230.88,282.62 230.98,282.73 231.08,282.85 231.16,282.99 231.23,283.13 231.28,283.3 231.33,283.48 231.36,283.65 231.33,283.82 231.33,283.96 231.28,284.1 231.23,284.24 231.18,284.36 231.11,284.47 231,284.59 230.83,284.79 230.67,284.93 230.52,285.01 230.39,285.01 230.16,284.98 229.65,284.81 229.35,284.73 229.04,284.67 228.74,284.64 228.46,284.61 228.15,284.64 227.87,284.7 227.57,284.79 227.28,284.93 227,285.1 226.75,285.33 226.49,285.58 226.26,285.87 226.04,286.18 225.83,286.47 225.68,286.75 225.53,287.04 225.42,287.29 225.35,287.55 225.32,287.8 225.3,288.03 225.3,288.23 225.32,288.4 225.37,288.6 225.45,288.77 225.55,288.97 225.65,289.17 225.78,289.34 225.93,289.54 226.09,289.71 226.26,289.88 226.47,290.03 226.67,290.11 226.88,290.2 227.13,290.25 227.36,290.31 227.64,290.31 227.79,290.31 227.97,290.28 228.13,290.22 228.3,290.17 228.46,290.08 228.63,290 228.81,289.88 228.96,289.74 229.32,289.43 229.68,289.03 230.04,288.57 230.39,288.03 230.55,287.75 230.75,287.35 230.98,286.92 231.26,286.41 231.39,286.15 231.51,285.92 231.64,285.75 231.77,285.61 231.87,285.5 232,285.44 232.1,285.41 232.18,285.44 232.25,285.47 232.3,285.55 232.33,285.67 232.33,285.81 232.3,285.95 232.28,286.15 232.23,286.38 232.15,286.64 231.95,287.21 231.72,287.86 231.41,288.6 231.05,289.46 230.77,290.05 230.49,290.62 230.19,291.19 229.91,291.76 229.6,292.3 229.3,292.85 228.96,293.36 228.66,293.87 228.25,294.44 227.85,294.98 227.46,295.46 227.03,295.95 226.62,296.38 226.19,296.75 225.76,297.12 225.32,297.43 224.89,297.71 224.43,297.94 223.97,298.14 223.51,298.31 223.03,298.45 222.57,298.54 222.09,298.6 221.58,298.63 221.27,298.6 220.94,298.57 220.64,298.54 220.36,298.48 220.08,298.4 219.8,298.28 219.54,298.17 219.29,298.06 219.06,297.89 218.83,297.71 218.62,297.54 218.42,297.34 218.22,297.12 218.04,296.86 217.86,296.6 217.68,296.35 217.6,296.15 217.5,295.98 215.08,300.31 215.49,300.48 215.82,300.62 216.08,300.73 216.23,300.82 216.46,300.96 216.76,301.16 217.22,301.42 217.78,301.76 218.09,301.96 218.34,302.19 218.55,302.41 218.73,302.64 218.88,302.9 218.98,303.15 219.03,303.44 219.06,303.75 219.03,303.92 219.01,304.09 218.95,304.29 218.88,304.49 218.5,305.38 218.11,306.2 217.91,306.57 217.71,306.94 217.5,307.28 217.3,307.6 217.1,307.91 216.87,308.2 216.64,308.45 216.41,308.71 216.18,308.94 215.95,309.13 215.69,309.33 215.46,309.5 215.24,309.65 214.9,309.79 214.52,309.96 214.04,310.13 213.48,310.3 212.84,310.5 212.13,310.7 211.34,310.9 210.47,311.16 209.68,311.44 208.92,311.75 208.21,312.1 207.54,312.5 206.86,312.92 206.19,313.35 205.53,313.86 204.92,314.37 204.38,314.86 203.9,315.37 203.47,315.86 203.11,316.34 202.8,316.82 202.55,317.28 202.35,317.74 202.14,318.3 201.94,318.9 201.76,319.53 201.58,320.18 201.4,320.87 201.23,321.55 201.07,322.26 200.92,323 200.84,323.37 200.74,324.03 200.59,324.91 200.44,326.11 200.39,326.45 200.33,326.96 200.28,327.67 200.21,328.56 200.11,329.61 199.98,330.86 199.85,332.32 199.72,333.94 199.57,335.53 199.44,336.99 199.34,338.27 199.26,339.38 199.21,340.32 199.16,341.09 199.14,341.66 199.11,342.09 198.7,351.54 198.7,352.08 198.68,352.65 198.65,353.28 198.63,353.93 198.6,354.62 198.55,355.33 198.5,356.07 198.42,356.84 198.3,358.23 198.14,359.23 198.09,359.57 198.02,359.83 197.97,359.91 197.94,359.97 197.89,360.03 197.86,360.03 197.81,359.37 197.76,358.75 197.71,358.23 197.68,357.75 197.64,357.01 197.58,356.3 197.53,355.67 197.51,355.07 197.48,354.56 197.46,354.07 197.46,353.68 197.43,353.33 197.43,352.45 197.43,351.57 197.43,350.69 197.43,349.83 197.43,349 197.43,348.18 197.43,347.38 197.43,346.58 197.43,345.79 197.46,345.05 197.46,344.28 197.46,343.57 197.46,342.85 197.48,342.17 197.48,341.49 197.51,340.83 197.51,339.41 197.56,337.98 197.61,336.53 197.68,335.11 197.79,333.68 197.92,332.26 198.04,330.81 198.22,329.38 198.4,327.96 198.6,326.59 198.83,325.31 199.06,324.06 199.32,322.86 199.57,321.72 199.85,320.64 200.13,319.61 200.33,318.9 200.56,318.19 200.82,317.51 201.1,316.79 201.38,316.14 201.68,315.49 202.02,314.86 202.35,314.23 202.68,313.63 203.03,313.04 203.42,312.47 203.8,311.9 204.18,311.38 204.59,310.87 205.07,310.33 205.58,309.76 206.12,309.22 206.6,308.74 207.06,308.34 207.49,307.97 "/>
  <polygon class="fil1" points="63.09,281.55 63.09,281.55 61.49,286.14 60.96,288.07 60.95,288.5 60.94,288.96 60.94,289.41 60.93,289.89 60.91,290.37 60.91,290.88 60.88,291.4 60.88,291.93 60.86,292.51 60.84,293.06 60.8,293.66 60.76,294.29 60.69,294.91 60.63,295.57 60.54,296.24 60.46,296.94 60.4,297.43 60.3,297.99 60.19,298.64 60.06,299.4 59.9,300.17 59.72,301 59.57,301.81 59.39,302.64 59.62,303.05 59.7,303.04 59.8,303.01 59.87,302.95 59.97,302.9 60.16,302.71 60.35,302.48 60.55,302.13 60.84,301.65 61.17,301.02 61.54,300.27 62.77,297.22 62.99,296.56 63.18,295.9 63.33,295.26 63.48,294.65 63.59,294 63.67,293.27 63.75,292.47 63.79,291.61 63.96,286.16 64,282.74 64.13,280.67 64.12,280.58 64.05,280.46 63.99,280.32 63.87,280.19 63.68,280.42 63.59,280.6 63.44,280.87 63.28,281.13 63.17,281.35 "/>
  <polygon class="fil1" points="75.03,301.95 75.03,301.95 75.08,301.68 75.11,301.44 75.14,301.25 75.14,301.06 75.11,300.93 75.08,300.82 75.03,300.77 74.95,300.74 74.87,300.74 74.79,300.79 74.68,300.87 74.54,301.01 74.27,301.41 73.93,302.01 73.55,302.6 73.22,303.11 72.96,303.49 72.69,303.76 72.39,303.97 72.01,304.22 71.53,304.49 70.96,304.78 70.21,305.19 69.62,305.48 69.21,305.7 68.97,305.81 68.62,306.05 68.27,306.29 67.94,306.53 67.67,306.78 67.41,307.02 67.16,307.26 66.95,307.48 66.76,307.72 66.57,308.01 66.36,308.34 66.11,308.74 65.87,309.2 65.33,310.33 64.68,311.7 64.09,313.05 63.61,314.05 63.28,314.72 63.07,315.07 62.64,315.56 62.02,316.12 61.29,316.77 60.4,317.47 60.21,317.61 59.89,317.82 59.4,318.14 58.76,318.58 57.76,319.22 57.03,319.68 56.55,320 56.36,320.14 55.82,320.52 55.34,320.87 54.9,321.19 54.5,321.48 54.18,321.75 53.96,322 53.88,322.11 53.83,322.19 53.8,322.27 53.8,322.35 53.88,322.45 53.99,322.56 54.1,322.64 54.23,322.7 54.37,322.72 54.53,322.75 54.72,322.78 54.9,322.75 55.42,322.72 56.06,322.67 56.82,322.54 57.73,322.37 58.62,322.19 59.38,322.02 60,321.84 60.48,321.65 60.75,321.54 60.99,321.4 61.26,321.24 61.5,321.08 61.72,320.92 61.96,320.76 62.18,320.57 62.39,320.35 62.58,320.14 62.77,319.92 62.96,319.68 63.15,319.44 63.47,318.93 63.77,318.36 63.93,318.01 64.12,317.61 64.31,317.15 64.52,316.64 64.74,316.07 65.01,315.45 65.28,314.78 65.55,314.05 65.9,313.3 66.22,312.65 66.54,312.11 66.84,311.65 67,311.46 67.19,311.27 67.43,311.06 67.7,310.84 68,310.65 68.24,310.49 68.46,310.36 68.65,310.28 71.23,308.96 71.5,308.82 71.77,308.63 72.01,308.39 72.28,308.15 72.52,307.83 72.77,307.5 73.01,307.13 73.25,306.69 73.49,306.24 73.71,305.75 73.95,305.21 74.17,304.65 74.38,304.03 74.6,303.38 74.81,302.68 "/>
  <polygon class="fil1" points="113.58,292.98 113.58,292.98 113.63,293.32 113.61,293.69 113.58,294.05 113.47,294.42 113.34,294.81 113.19,295.23 112.98,295.67 112.74,296.14 112.48,296.61 112.14,297.08 111.8,297.5 111.38,297.92 111.12,298.16 110.89,298.31 110.78,298.37 110.7,298.42 110.6,298.44 110.52,298.44 110.39,298.42 110.18,298.29 109.92,298.11 109.61,297.84 109.27,297.56 108.95,297.29 108.64,297.03 108.35,296.82 108.06,296.61 107.83,296.41 107.59,296.2 107.39,295.99 107.2,295.8 107.1,295.62 107.02,295.47 106.99,295.31 107.18,294.92 107.33,294.55 107.46,294.24 107.59,294 107.91,293.3 108.17,292.72 108.4,292.25 108.59,291.86 108.87,291.36 109.19,290.84 109.48,290.32 109.79,289.79 109.95,289.56 110.18,289.19 110.39,289.38 110.57,289.53 110.81,289.69 111.12,289.87 111.75,290.39 112.27,290.87 112.69,291.26 112.98,291.6 113.19,291.91 113.37,292.25 113.5,292.62 "/>
  <polygon class="fil1" points="106.73,293.4 106.73,293.4 106.76,293.74 106.76,294.08 106.71,294.45 106.63,294.81 106.5,295.23 106.31,295.65 106.13,296.09 105.89,296.56 105.61,297.03 105.29,297.48 104.93,297.9 104.51,298.31 104.28,298.55 104.04,298.71 103.93,298.78 103.83,298.81 103.75,298.84 103.65,298.84 103.52,298.81 103.33,298.71 103.07,298.52 102.76,298.26 102.42,297.97 102.08,297.69 101.79,297.45 101.5,297.22 101.22,297.01 100.96,296.8 100.75,296.59 100.54,296.38 100.36,296.2 100.22,296.01 100.15,295.86 100.12,295.73 100.3,295.31 100.49,294.94 100.62,294.65 100.72,294.39 101.03,293.71 101.32,293.11 101.53,292.64 101.71,292.25 102.03,291.75 102.32,291.23 102.63,290.74 102.92,290.19 103.1,289.95 103.33,289.59 103.52,289.77 103.73,289.92 103.96,290.08 104.25,290.26 104.9,290.79 105.42,291.26 105.82,291.65 106.13,291.99 106.34,292.3 106.5,292.64 106.63,293.01 "/>
  <polygon class="fil1" points="41.68,302.42 41.68,302.42 41.66,302.24 41.6,302.08 41.55,301.9 41.5,301.72 41.42,301.56 41.32,301.38 41.21,301.22 41.08,301.07 40.77,300.72 40.32,300.33 39.8,299.86 39.15,299.37 38.86,299.18 38.52,299 38.13,298.82 37.74,298.63 37.5,298.97 37.34,299.24 37.06,299.65 36.77,300.15 36.43,300.7 36.09,301.3 34.55,304.75 34.57,304.88 34.63,304.98 34.68,305.09 34.73,305.19 34.94,305.4 35.17,305.59 35.46,305.77 35.78,305.98 36.09,306.16 36.4,306.37 36.53,306.45 36.85,306.68 37.34,307.05 38.02,307.55 38.23,307.7 38.39,307.81 38.52,307.86 38.62,307.89 38.81,307.83 39.04,307.7 39.28,307.49 39.57,307.23 39.85,306.89 40.19,306.5 40.56,306.03 40.95,305.48 41.13,305.22 41.29,304.93 41.42,304.65 41.55,304.36 41.63,304.04 41.68,303.76 41.73,303.47 41.73,303.16 41.73,302.74 "/>
  <polygon class="fil1" points="50.86,305.1 50.86,305.1 50.7,305.76 50.56,306.35 50.42,306.85 50.34,307.31 50.23,307.71 50.12,308.1 49.98,308.56 49.82,309.01 49.6,309.62 49.38,310.21 49.13,310.82 48.89,311.41 48.61,312.02 48.31,312.63 47.98,313.22 47.65,313.83 47.3,314.44 46.91,315.05 46.53,315.64 46.14,316.22 45.73,316.78 45.32,317.34 44.88,317.9 44.42,318.46 43.73,319.23 43.02,319.98 42.28,320.67 41.54,321.31 40.79,321.89 40.03,322.42 39.26,322.93 38.49,323.36 38.08,323.57 37.7,323.76 37.28,323.92 36.87,324.1 36.46,324.24 36.02,324.37 35.61,324.5 35.17,324.61 34.73,324.71 34.29,324.79 33.83,324.87 33.39,324.93 32.92,324.98 32.46,325.01 31.99,325.01 31.5,325.03 30.95,325.01 30.43,324.98 29.93,324.93 29.44,324.85 28.94,324.77 28.48,324.66 28.04,324.53 27.6,324.37 27.19,324.18 26.8,324 26.42,323.78 26.06,323.54 25.71,323.28 25.38,323.01 25.05,322.69 24.75,322.37 24.47,322.05 24.2,321.71 23.95,321.33 23.73,320.96 23.51,320.59 23.32,320.19 23.16,319.76 22.99,319.34 22.85,318.91 22.74,318.46 22.64,318.01 22.55,317.53 22.5,317.05 22.44,316.57 22.42,316.06 22.42,315.53 22.42,315 22.44,314.47 22.5,313.91 22.55,313.35 22.64,312.76 22.72,312.18 22.85,311.59 22.96,310.98 23.13,310.39 23.27,309.83 23.4,309.28 23.57,308.77 23.7,308.26 23.87,307.81 24.03,307.36 24.2,306.96 24.55,306.14 24.91,305.31 25.32,304.46 25.76,303.61 26.06,303.02 26.37,302.44 26.7,301.85 27,301.26 27.33,300.68 27.68,300.09 28.01,299.51 28.37,298.92 28.62,298.5 28.81,298.18 28.94,297.96 29.03,297.86 29.08,297.83 29.16,297.81 29.27,297.81 29.41,297.83 29.47,297.91 29.49,298.04 29.47,298.28 29.44,298.58 29.38,298.9 29.33,299.21 29.27,299.48 29.19,299.75 26.89,304.62 26.48,305.66 26.15,306.51 25.87,307.17 25.71,307.68 25.6,308.05 25.49,308.42 25.41,308.8 25.32,309.17 25.27,309.57 25.24,309.94 25.21,310.34 25.21,310.71 25.21,311.22 25.24,311.67 25.3,312.15 25.38,312.58 25.49,313 25.6,313.4 25.73,313.8 25.9,314.15 26.09,314.52 26.31,314.84 26.53,315.16 26.78,315.45 27.05,315.74 27.35,316.01 27.66,316.25 28.01,316.49 28.26,316.65 28.56,316.81 28.83,316.94 29.14,317.07 29.74,317.31 30.37,317.5 31.06,317.66 31.77,317.74 32.54,317.82 33.31,317.85 34.43,317.82 35.47,317.74 35.97,317.69 36.46,317.63 36.93,317.55 37.37,317.47 37.8,317.37 38.24,317.23 38.71,317.1 39.18,316.91 39.64,316.73 40.11,316.52 40.58,316.3 41.07,316.04 41.56,315.77 42.03,315.48 42.47,315.16 42.94,314.84 43.35,314.49 43.79,314.15 44.17,313.75 44.55,313.37 45.1,312.76 45.71,312.04 46.34,311.19 47.02,310.23 47.41,309.57 47.73,308.93 48.04,308.32 48.28,307.71 48.37,307.39 48.45,307.07 48.53,306.72 48.59,306.38 48.64,306 48.67,305.6 48.7,305.18 48.7,304.75 48.83,299.88 48.86,299.27 48.89,298.71 49,298.15 49.11,297.64 49.27,297.09 49.46,296.47 49.71,295.81 50.01,295.06 51.41,292.4 51.6,292.08 51.77,291.82 51.88,291.63 51.93,291.5 52.1,291.28 52.32,290.99 52.4,291.07 52.48,291.18 52.54,291.28 52.56,291.39 52.62,291.6 52.59,291.87 52.26,294.24 51.91,297.64 51.88,298.58 51.85,299.48 51.77,300.31 51.66,301.08 51.6,301.48 51.52,301.9 51.44,302.36 51.33,302.84 51.22,303.34 51.11,303.9 51,304.49 "/>
  <path class="fil1" d="M128.82 312.56l-2.27 -0.58 -0.43 0.44 -0.38 0.4 -0.31 0.33 -0.29 0.26 -0.46 0.47 -0.52 0.42 -0.58 0.45 -0.63 0.42 -0.66 0.42 -0.67 0.38 -0.69 0.38 -0.72 0.35 -0.75 0.33 -0.77 0.3 -0.81 0.31 -0.81 0.26 -0.63 0.18 -0.69 0.22 -0.72 0.18 -0.75 0.19 -0.81 0.19 -0.83 0.19 -0.86 0.19 -0.9 0.18 -0.95 0.17 -1.01 0.16 -1.03 0.19 -1.07 0.14 -1.09 0.17 -1.15 0.14 -1.18 0.14 -1.24 0.12 -1.24 0.14 -1.24 0.09 -1.21 0.09 -1.21 0.07 -1.18 0.05 -1.18 0.05 -1.18 0.02 -1.15 0 -1.21 0 -0.81 0 -0.81 0 -0.74 -0.02 -0.75 -0.05 -0.69 -0.05 -0.67 -0.04 -0.66 -0.07 -0.6 -0.07 -0.9 -0.12 -0.83 -0.16 -0.78 -0.17 -0.72 -0.19 -0.63 -0.21 -0.61 -0.23 -0.52 -0.26 -0.48 -0.28 -0.21 -0.17 -0.2 -0.16 -0.2 -0.21 -0.17 -0.22 -0.15 -0.21 -0.14 -0.26 -0.11 -0.25 -0.09 -0.29 -0.15 -0.58 -0.11 -0.64 -0.06 -0.68 -0.03 -0.7 0 -0.4 0 -0.43 0.03 -0.44 0.03 -0.45 0.03 -0.44 0.06 -0.45 0.03 -0.47 0.05 -0.49 0.09 -0.45 0.06 -0.4 0.08 -0.33 0.09 -0.28 0.12 -0.21 0.08 -0.14 0.06 -0.05 0.06 -0.05 0.05 -0.02 0.06 0 0.12 0 0.11 0.05 0.09 0.07 0.08 0.09 0.09 0.12 0.06 0.14 0.06 0.16 0.03 0.21 0.08 0.43 0.15 0.42 0.14 0.42 0.2 0.43 0.2 0.3 0.23 0.28 0.26 0.26 0.32 0.24 0.34 0.21 0.38 0.19 0.4 0.16 0.46 0.14 0.49 0.12 0.49 0.12 0.55 0.11 0.55 0.12 0.57 0.09 0.61 0.1 0.66 0.07 0.63 0.09 0.69 0.07 0.67 0.05 0.63 0.07 0.66 0.03 0.64 0.04 0.63 0.03 0.63 0 0.64 0.02 1.21 0 1.09 0 1.1 -0.02 1.09 -0.03 1.09 -0.02 1.1 -0.02 1.12 -0.05 1.09 -0.05 1.1 -0.07 1.12 -0.07 1.18 -0.09 1.24 -0.1 1.3 -0.14 1.35 -0.16 1.41 -0.17 1.5 -0.19 1.53 -0.23 0.74 -0.12 0.69 -0.09 0.64 -0.12 0.6 -0.09 0.52 -0.07 0.46 -0.1 0.43 -0.07 0.38 -0.07 0.69 -0.12 0.63 -0.14 0.64 -0.14 0.57 -0.14 0.52 -0.16 0.52 -0.14 0.46 -0.15 0.43 -0.16 0.41 -0.14 0.34 -0.12 0.32 -0.12 0.26 -0.09 0.52 -0.21 0.48 -0.21 0.52 -0.26 0.55 -0.28 0.38 -0.24 0.4 -0.28 0.4 -0.33 0.38 -0.3 0.05 0 0.06 0.02 0.06 0.05 0.03 0.07 0.05 0.18 0.03 0.26 -0.03 0.22 -0.05 0.35 0.2 0 0.26 0 0.26 -0.03 0.34 -0.04 0.03 0.07 0.03 0.07 0 -0.12 0.55 -0.07 0.46 -0.05 0.32 -0.07 0.23 -0.04 0.4 -0.17 0.37 -0.12 0.32 -0.11 0.26 -0.1 0.66 -0.26 0.61 -0.23 0.54 -0.26 0.52 -0.28 0.35 -0.19 0.29 -0.19 0.23 -0.19 0.2 -0.18 0.14 -0.19 0.12 -0.17 0.08 -0.18 0 -0.17 -0.14 -0.73 -0.12 -0.18 -0.14 -0.17 -0.14 -0.16 -0.21 -0.12 -0.2 -0.09 -0.23 -0.05 -0.23 -0.05 -0.29 -0.02 -0.98 0.12 -0.14 0.02 -0.12 0 -0.14 -0.02 -0.09 -0.05 -0.05 -0.1 -0.03 -0.11 -0.03 -0.1 0.03 -0.11 0.08 -0.19 0.12 -0.19 0.17 -0.21 0.18 -0.21 0.23 -0.22 0.25 -0.21 0.29 -0.23 0.32 -0.24 0.43 -0.3 0.46 -0.26 0.46 -0.21 0.49 -0.19 0.46 -0.14 0.49 -0.1 0.52 -0.06 0.52 -0.03 0.37 0.03 0.38 0.02 0.34 0.02 0.35 0.05 0.35 0.05 0.31 0.07 0.32 0.07 0.29 0.09 0.28 0.12 0.23 0.12 0.21 0.14 0.17 0.16 0.11 0.19 0.09 0.19 0.06 0.21 0.03 0.23 0 0.21 -0.03 0.19 -0.06 0.19 -0.06 0.19 -0.05 0.19 -0.09 0.18 -0.09 0.19 -0.11 0.19 -0.23 0.33 -0.15 0.23 -0.11 0.19 -0.03 0.1 -0.03 0.04 0 0.07 0.03 0.05 0.06 0.05 0.08 0.07 0.09 0.02 0.17 0 0.23 -0.02 0.23 -0.05 0.23 -0.07 0.29 -0.07 0.29 -0.12 0.34 -0.14 0.35 -0.14 0 0.02 0 -0.04 0.29 -0.17 0.29 -0.18 0.29 -0.22 0.31 -0.23 0.26 -0.24 0.26 -0.18 0.2 -0.17 0.15 -0.14 0.34 -0.28 -0.03 -0.03 0.38 -0.37 0.37 -0.35 0.4 -0.36 0.41 -0.3 0.31 -0.21 0.26 -0.19 0.29 -0.16 0.26 -0.12 0.23 -0.1 0.23 -0.07 0.2 -0.04 0.2 -0.03 0.29 0.03 0.29 0.07 0.35 0.11 0.37 0.17 0.35 0.16 0.28 0.12 0.21 0.09 0.14 0.05 0.11 -0.02 0.12 -0.05 0.17 -0.12 0.2 -0.19 0.49 -0.49 0.61 -0.7 0.4 -0.54 0.38 -0.47 0.34 -0.38 0.29 -0.3 0.23 -0.22 0.23 -0.18 0.2 -0.17 0.23 -0.12 0.2 -0.11 0.21 -0.07 0.2 -0.03 0.2 -0.02 0.2 0.02 0.32 0.05 0.4 0.09 0.55 0.15 0.54 0.11 0.49 0.1 0.41 0.07 0.34 0.02 0.09 -0.02 0.08 -0.07 0.12 -0.12 0.17 -0.14 0.38 -0.45 0.52 -0.61 0.37 -0.45 0.38 -0.44 0.37 -0.47 0.37 -0.45 0.41 -0.44 0.37 -0.47 0.38 -0.45 0.4 -0.45 0.57 -0.47 0.55 -0.47 0.58 -0.47 0.57 -0.47 0.49 -0.33 0.46 -0.28 0.49 -0.23 0.46 -0.21 0.47 -0.14 0.43 -0.12 0.46 -0.07 0.4 0 0.38 0 0.37 0.02 0.32 0.07 0.28 0.07 0.26 0.1 0.23 0.09 0.2 0.14 0.18 0.16 0.14 0.17 0.12 0.19 0.11 0.21 0.09 0.21 0.08 0.23 0.03 0.26 0.06 0.26 0 0.28 -0.06 0.5 -0.05 0.47 -0.12 0.47 -0.11 0.44 -0.18 0.5 -0.26 0.51 -0.28 0.59 -0.35 0.64 -0.4 0.65 -0.38 0.61 -0.4 0.57 -0.37 0.54 -0.32 0.37 -0.32 0.38 -0.32 0.33 -0.31 0.3 -0.32 0.31 -0.29 0.26 -0.31 0.26 -0.32 0.21 -0.52 0.33 -0.49 0.33 -0.52 0.28 -0.46 0.26 -0.49 0.23 -0.43 0.21 -0.43 0.17 -0.43 0.16 -0.43 0.14 -0.41 0.12 -0.43 0.09 -0.43 0.07 -0.43 0.07 -0.43 0.05 -0.44 0.02 -0.43 0 -0.72 0 -0.63 -0.04 -0.52 -0.07 -0.49 -0.1 -0.4 -0.11 -0.44 -0.17 -0.43 -0.19 -0.43 -0.25 -0.37 -0.24 -0.32 -0.19 -0.2 -0.14 -0.15 -0.12 -0.23 -0.21 -0.2 -0.28 -0.17 0.21 -0.12 0.17 -0.43 0.44 -0.34 0.36 -0.29 0.3 -0.2 0.21 -0.32 0.33 -0.29 0.28 -0.29 0.26 -0.25 0.24 -0.26 0.21 -0.26 0.19 -0.26 0.14 -0.26 0.14 -0.26 0.09 -0.26 0.07 -0.23 0.05 -0.26 0 -0.29 -0.05 -0.57 -0.21 -0.32 -0.12 -0.32 -0.09 -0.28 -0.05 -0.26 -0.02 -0.21 0.02 -0.23 0.05 -0.2 0.07 -0.26 0.09 -0.23 0.12 -0.26 0.14 -0.28 0.17 -0.29 0.18 -2.45 1.88 -0.03 0.03 0 0.02 -0.46 0.35 -0.46 0.29 -0.2 0.11 -0.2 0.12 -0.23 0.07 -0.21 0.07 -0.43 0.12 -0.52 0.07 -0.57 0.05 -0.64 0.02 -0.23 -0.02 -0.25 -0.03 -0.29 -0.07 -0.35 -0.07 -0.32 -0.07 -0.25 -0.07 -0.21 -0.02 -0.14 -0.03 -0.2 0.03 -0.23 0.09 -0.29 0.12 -0.35 0.19 -0.77 0.54 -0.69 0.47 -0.55 0.37 -0.43 0.31 -0.35 0.28 -0.34 0.24 -0.32 0.23 -0.29 0.23 -0.29 0.17 -0.26 0.14 -0.26 0.14 -0.26 0.1 -0.25 0.07 -0.23 0.07 -0.23 0.02 -0.21 0.02 -1.35 -0.37 0 -0.14 -0.03 0.07 -0.03 0.04zm41.13 -17.45l0 0 -0.03 -0.05 -0.03 -0.05 -0.09 -0.04 -0.09 -0.07 -0.28 -0.14 -0.41 -0.15 -0.43 -0.16 -0.37 -0.09 -0.35 -0.07 -0.26 -0.03 -0.31 0.03 -0.32 0.02 -0.32 0.05 -0.29 0.07 -0.28 0.07 -0.29 0.11 -0.26 0.12 -0.29 0.14 -0.26 0.17 -0.26 0.19 -0.29 0.18 -0.28 0.21 -0.58 0.5 -0.57 0.56 -0.24 0.21 -0.2 0.24 -0.2 0.21 -0.23 0.21 -0.32 0.35 -0.28 0.33 -0.2 0.33 -0.18 0.31 0.43 -0.03 0.41 -0.02 0.34 -0.05 0.29 -0.02 0.84 -0.14 0.8 -0.17 0.78 -0.23 0.75 -0.24 0.72 -0.28 0.66 -0.33 0.66 -0.33 0.61 -0.35 0.34 -0.21 0.32 -0.21 0.26 -0.21 0.2 -0.21 0.17 -0.19 0.12 -0.19 0.06 -0.16 0.03 -0.19z"/>
  <path class="fil1" d="M176.23 205.12c0.64,6.07 1.49,7.57 2.38,9.25 3.2,6.07 10.16,6.5 13.35,-0.68 0.98,-2.22 1.57,-5.25 1.66,-8.57l3 -100.78 4.05 -5.68 1.88 -2.64 -36.73 0 5.23 8.32c1.82,38.08 3.37,62.69 5.18,100.78zm3.4 -100.76c2.43,-2.59 6.22,-2.91 8.33,0.02l-0.07 76.84 -5.42 0.01 -2.84 -76.87z"/>
  <polygon class="fil1" points="84.04,278.92 84.04,278.92 82.44,283.51 81.9,285.44 81.9,285.87 81.89,286.33 81.89,286.78 81.88,287.26 81.85,287.74 81.85,288.24 81.83,288.77 81.83,289.3 81.81,289.88 81.79,290.43 81.75,291.03 81.71,291.65 81.64,292.28 81.58,292.93 81.49,293.61 81.41,294.31 81.35,294.8 81.25,295.35 81.14,296.01 81,296.76 80.85,297.54 80.67,298.37 80.52,299.17 80.34,300 80.57,300.41 80.65,300.41 80.75,300.38 80.82,300.32 80.92,300.26 81.11,300.08 81.3,299.85 81.5,299.5 81.79,299.02 82.12,298.39 82.49,297.64 83.72,294.59 83.94,293.93 84.13,293.27 84.28,292.63 84.42,292.02 84.54,291.36 84.62,290.64 84.7,289.84 84.74,288.98 84.91,283.53 84.95,280.11 85.07,278.04 85.06,277.94 85,277.83 84.94,277.69 84.82,277.56 84.63,277.79 84.54,277.97 84.39,278.24 84.23,278.49 84.12,278.72 "/>
  <polygon class="fil1" points="76.93,332.35 76.93,332.35 76.98,332.69 76.95,333.06 76.93,333.43 76.82,333.79 76.69,334.18 76.54,334.6 76.33,335.05 76.09,335.52 75.83,335.99 75.49,336.46 75.15,336.88 74.73,337.29 74.47,337.53 74.24,337.69 74.13,337.74 74.05,337.79 73.95,337.82 73.87,337.82 73.74,337.79 73.53,337.66 73.27,337.48 72.96,337.22 72.62,336.93 72.3,336.67 71.99,336.41 71.7,336.2 71.41,335.99 71.18,335.78 70.94,335.57 70.73,335.36 70.55,335.18 70.45,334.99 70.37,334.84 70.34,334.68 70.53,334.29 70.68,333.92 70.81,333.61 70.94,333.37 71.26,332.67 71.52,332.09 71.75,331.62 71.94,331.23 72.22,330.74 72.54,330.21 72.82,329.69 73.14,329.17 73.29,328.93 73.53,328.57 73.74,328.75 73.92,328.91 74.16,329.06 74.47,329.25 75.1,329.77 75.62,330.24 76.04,330.63 76.33,330.97 76.54,331.28 76.72,331.62 76.85,331.99 "/>
  <polygon class="fil1" points="70.08,332.77 70.08,332.77 70.11,333.11 70.11,333.45 70.06,333.82 69.98,334.18 69.85,334.6 69.66,335.02 69.48,335.47 69.24,335.94 68.96,336.41 68.64,336.85 68.28,337.27 67.86,337.69 67.62,337.92 67.39,338.08 67.28,338.16 67.18,338.18 67.1,338.21 67,338.21 66.87,338.18 66.68,338.08 66.42,337.9 66.11,337.63 65.77,337.35 65.43,337.06 65.14,336.82 64.85,336.59 64.57,336.38 64.3,336.17 64.1,335.96 63.89,335.75 63.7,335.57 63.57,335.39 63.49,335.23 63.47,335.1 63.65,334.68 63.84,334.32 63.97,334.03 64.07,333.77 64.38,333.09 64.67,332.49 64.88,332.02 65.06,331.62 65.38,331.13 65.66,330.6 65.98,330.11 66.27,329.56 66.45,329.32 66.68,328.96 66.87,329.14 67.08,329.3 67.31,329.46 67.6,329.64 68.25,330.16 68.77,330.63 69.17,331.02 69.48,331.36 69.69,331.68 69.85,332.02 69.98,332.38 "/>
  <polygon class="fil1" points="150.03,279.68 150.03,279.68 150.09,280.02 150.06,280.39 150.03,280.75 149.93,281.12 149.8,281.51 149.64,281.93 149.43,282.37 149.2,282.84 148.94,283.31 148.6,283.79 148.26,284.2 147.84,284.62 147.58,284.86 147.34,285.01 147.24,285.07 147.16,285.12 147.05,285.14 146.98,285.14 146.85,285.12 146.64,284.99 146.37,284.8 146.06,284.54 145.72,284.26 145.41,283.99 145.09,283.73 144.81,283.52 144.52,283.31 144.28,283.11 144.05,282.9 143.84,282.69 143.66,282.51 143.55,282.32 143.47,282.16 143.45,282.01 143.63,281.62 143.79,281.25 143.92,280.94 144.05,280.7 144.36,280 144.62,279.42 144.86,278.95 145.04,278.56 145.33,278.06 145.64,277.54 145.93,277.02 146.24,276.49 146.4,276.26 146.64,275.89 146.85,276.08 147.03,276.23 147.26,276.39 147.58,276.57 148.2,277.1 148.73,277.57 149.15,277.96 149.43,278.3 149.64,278.61 149.82,278.95 149.96,279.32 "/>
 </g>
</svg>
